<?xml version="1.0" encoding="UTF-8" standalone="no"?>
<!DOCTYPE svg PUBLIC "-//W3C//DTD SVG 1.1//EN"
 "http://www.w3.org/Graphics/SVG/1.1/DTD/svg11.dtd">
<!-- Generated by graphviz version 2.40.1 (20161225.0304)
 -->
<!-- Title: list Pages: 1 -->
<svg width="643pt" height="194pt"
 viewBox="0.00 0.00 643.00 193.53" xmlns="http://www.w3.org/2000/svg" xmlns:xlink="http://www.w3.org/1999/xlink">
<g id="graph0" class="graph" transform="scale(1 1) rotate(0) translate(4 189.5264)">
<title>list</title>
<polygon fill="#ffffff" stroke="transparent" points="-4,4 -4,-189.5264 639,-189.5264 639,4 -4,4"/>
<text text-anchor="middle" x="317.5" y="-7" font-family="Times,serif" font-size="10.00" fill="#000000">GuessTheNumberMachine</text>
<!-- i -->
<g id="node1" class="node">
<title>i</title>
<ellipse fill="#000000" stroke="#000000" cx="7" cy="-140.5264" rx="7" ry="7"/>
<text text-anchor="middle" x="7" y="-140.2264" font-family="Times,serif" font-size="1.00" fill="#000000">i</text>
</g>
<!-- start -->
<g id="node2" class="node">
<title>start</title>
<path fill="#ffffff" stroke="#000000" d="M93,-158.5264C93,-158.5264 63,-158.5264 63,-158.5264 57,-158.5264 51,-152.5264 51,-146.5264 51,-146.5264 51,-134.5264 51,-134.5264 51,-128.5264 57,-122.5264 63,-122.5264 63,-122.5264 93,-122.5264 93,-122.5264 99,-122.5264 105,-128.5264 105,-134.5264 105,-134.5264 105,-146.5264 105,-146.5264 105,-152.5264 99,-158.5264 93,-158.5264"/>
<text text-anchor="middle" x="78" y="-138.0264" font-family="Times,serif" font-size="10.00" fill="#000000">Start</text>
</g>
<!-- i&#45;&gt;start -->
<g id="edge1" class="edge">
<title>i&#45;&gt;start</title>
<path fill="none" stroke="#0000ff" d="M14.0673,-140.5264C20.4861,-140.5264 30.4839,-140.5264 40.6823,-140.5264"/>
<polygon fill="#0000ff" stroke="#0000ff" points="40.8224,-144.0265 50.8223,-140.5264 40.8223,-137.0265 40.8224,-144.0265"/>
</g>
<!-- high -->
<g id="node3" class="node">
<title>high</title>
<path fill="#ffffff" stroke="#000000" d="M251,-112.5264C251,-112.5264 221,-112.5264 221,-112.5264 215,-112.5264 209,-106.5264 209,-100.5264 209,-100.5264 209,-88.5264 209,-88.5264 209,-82.5264 215,-76.5264 221,-76.5264 221,-76.5264 251,-76.5264 251,-76.5264 257,-76.5264 263,-82.5264 263,-88.5264 263,-88.5264 263,-100.5264 263,-100.5264 263,-106.5264 257,-112.5264 251,-112.5264"/>
<text text-anchor="middle" x="236" y="-92.0264" font-family="Times,serif" font-size="10.00" fill="#000000">High</text>
</g>
<!-- start&#45;&gt;high -->
<g id="edge11" class="edge">
<title>start&#45;&gt;high</title>
<path fill="none" stroke="#0000ff" d="M105.1612,-132.6187C131.1278,-125.0588 170.4723,-113.6041 199.2359,-105.2299"/>
<polygon fill="#0000ff" stroke="#0000ff" points="200.3064,-108.5636 208.9293,-102.4077 198.3496,-101.8427 200.3064,-108.5636"/>
<text text-anchor="middle" x="155" y="-139.3264" font-family="Times,serif" font-size="9.00" fill="#000000">guess</text>
<text text-anchor="middle" x="155" y="-129.3264" font-family="Times,serif" font-size="9.00" fill="#000000">[guess_is_higher]</text>
</g>
<!-- low -->
<g id="node6" class="node">
<title>low</title>
<path fill="#ffffff" stroke="#000000" d="M424.5,-87.5264C424.5,-87.5264 394.5,-87.5264 394.5,-87.5264 388.5,-87.5264 382.5,-81.5264 382.5,-75.5264 382.5,-75.5264 382.5,-63.5264 382.5,-63.5264 382.5,-57.5264 388.5,-51.5264 394.5,-51.5264 394.5,-51.5264 424.5,-51.5264 424.5,-51.5264 430.5,-51.5264 436.5,-57.5264 436.5,-63.5264 436.5,-63.5264 436.5,-75.5264 436.5,-75.5264 436.5,-81.5264 430.5,-87.5264 424.5,-87.5264"/>
<text text-anchor="middle" x="409.5" y="-67.0264" font-family="Times,serif" font-size="10.00" fill="#000000">Low</text>
</g>
<!-- start&#45;&gt;low -->
<g id="edge10" class="edge">
<title>start&#45;&gt;low</title>
<path fill="none" stroke="#0000ff" d="M105.0874,-149.2184C142.2255,-159.7967 210.7538,-174.5029 267,-159.5264 311.3307,-147.7226 354.8098,-116.6207 381.8534,-94.2853"/>
<polygon fill="#0000ff" stroke="#0000ff" points="384.3137,-96.7889 389.7013,-87.6662 379.8006,-91.438 384.3137,-96.7889"/>
<text text-anchor="middle" x="236" y="-178.3264" font-family="Times,serif" font-size="9.00" fill="#000000">guess</text>
<text text-anchor="middle" x="236" y="-168.3264" font-family="Times,serif" font-size="9.00" fill="#000000">[guess_is_lower]</text>
</g>
<!-- high&#45;&gt;high -->
<g id="edge5" class="edge">
<title>high&#45;&gt;high</title>
<path fill="none" stroke="#0000ff" d="M221.5273,-112.6791C219.3008,-122.0655 224.125,-130.5264 236,-130.5264 243.2363,-130.5264 247.8544,-127.3845 249.8543,-122.806"/>
<polygon fill="#0000ff" stroke="#0000ff" points="253.3566,-122.8739 250.4727,-112.6791 246.3696,-122.4472 253.3566,-122.8739"/>
<text text-anchor="middle" x="236" y="-143.3264" font-family="Times,serif" font-size="9.00" fill="#000000">guess</text>
<text text-anchor="middle" x="236" y="-133.3264" font-family="Times,serif" font-size="9.00" fill="#000000">[guess_is_higher]</text>
</g>
<!-- lose -->
<g id="node4" class="node">
<title>lose</title>
<path fill="#ffffff" stroke="#000000" d="M619,-137.5264C619,-137.5264 589,-137.5264 589,-137.5264 583,-137.5264 577,-131.5264 577,-125.5264 577,-125.5264 577,-113.5264 577,-113.5264 577,-107.5264 583,-101.5264 589,-101.5264 589,-101.5264 619,-101.5264 619,-101.5264 625,-101.5264 631,-107.5264 631,-113.5264 631,-113.5264 631,-125.5264 631,-125.5264 631,-131.5264 625,-137.5264 619,-137.5264"/>
<path fill="none" stroke="#000000" d="M623,-141.5264C623,-141.5264 585,-141.5264 585,-141.5264 579,-141.5264 573,-135.5264 573,-129.5264 573,-129.5264 573,-109.5264 573,-109.5264 573,-103.5264 579,-97.5264 585,-97.5264 585,-97.5264 623,-97.5264 623,-97.5264 629,-97.5264 635,-103.5264 635,-109.5264 635,-109.5264 635,-129.5264 635,-129.5264 635,-135.5264 629,-141.5264 623,-141.5264"/>
<text text-anchor="middle" x="604" y="-117.0264" font-family="Times,serif" font-size="10.00" fill="#000000">Lose</text>
</g>
<!-- high&#45;&gt;lose -->
<g id="edge2" class="edge">
<title>high&#45;&gt;lose</title>
<path fill="none" stroke="#0000ff" d="M263.0147,-105.6568C289.1012,-115.7083 329.9861,-129.6474 367,-134.5264 449.8683,-145.4497 472.0661,-139.94 555,-129.5264 557.5252,-129.2093 560.1145,-128.8338 562.7202,-128.4173"/>
<polygon fill="#0000ff" stroke="#0000ff" points="563.5117,-131.8317 572.7501,-126.645 562.2936,-124.9385 563.5117,-131.8317"/>
<text text-anchor="middle" x="409.5" y="-152.3264" font-family="Times,serif" font-size="9.00" fill="#000000">guess</text>
<text text-anchor="middle" x="409.5" y="-142.3264" font-family="Times,serif" font-size="9.00" fill="#000000">[max_guesses_reached]</text>
</g>
<!-- won -->
<g id="node5" class="node">
<title>won</title>
<path fill="#ffffff" stroke="#000000" d="M619,-68.5264C619,-68.5264 589,-68.5264 589,-68.5264 583,-68.5264 577,-62.5264 577,-56.5264 577,-56.5264 577,-44.5264 577,-44.5264 577,-38.5264 583,-32.5264 589,-32.5264 589,-32.5264 619,-32.5264 619,-32.5264 625,-32.5264 631,-38.5264 631,-44.5264 631,-44.5264 631,-56.5264 631,-56.5264 631,-62.5264 625,-68.5264 619,-68.5264"/>
<path fill="none" stroke="#000000" d="M623,-72.5264C623,-72.5264 585,-72.5264 585,-72.5264 579,-72.5264 573,-66.5264 573,-60.5264 573,-60.5264 573,-40.5264 573,-40.5264 573,-34.5264 579,-28.5264 585,-28.5264 585,-28.5264 623,-28.5264 623,-28.5264 629,-28.5264 635,-34.5264 635,-40.5264 635,-40.5264 635,-60.5264 635,-60.5264 635,-66.5264 629,-72.5264 623,-72.5264"/>
<text text-anchor="middle" x="604" y="-48.0264" font-family="Times,serif" font-size="10.00" fill="#000000">Won</text>
</g>
<!-- high&#45;&gt;won -->
<g id="edge3" class="edge">
<title>high&#45;&gt;won</title>
<path fill="none" stroke="#0000ff" d="M251.1618,-76.2868C260.1167,-66.541 272.187,-55.038 285,-47.5264 317.8687,-28.2572 329.3157,-28.1433 367,-22.5264 435.5294,-12.3119 515.6598,-27.3907 562.9916,-39.0763"/>
<polygon fill="#0000ff" stroke="#0000ff" points="562.3095,-42.5141 572.8633,-41.5825 564.032,-35.7294 562.3095,-42.5141"/>
<text text-anchor="middle" x="409.5" y="-35.3264" font-family="Times,serif" font-size="9.00" fill="#000000">guess</text>
<text text-anchor="middle" x="409.5" y="-25.3264" font-family="Times,serif" font-size="9.00" fill="#000000">[guess_is_equal]</text>
</g>
<!-- high&#45;&gt;low -->
<g id="edge4" class="edge">
<title>high&#45;&gt;low</title>
<path fill="none" stroke="#0000ff" d="M263.0246,-92.0403C285.9692,-89.7808 319.7347,-86.1044 349,-81.5264 356.6503,-80.3297 364.8058,-78.8515 372.5709,-77.3465"/>
<polygon fill="#0000ff" stroke="#0000ff" points="373.3544,-80.7593 382.4784,-75.3738 371.9875,-73.894 373.3544,-80.7593"/>
<text text-anchor="middle" x="317" y="-101.3264" font-family="Times,serif" font-size="9.00" fill="#000000">guess</text>
<text text-anchor="middle" x="317" y="-91.3264" font-family="Times,serif" font-size="9.00" fill="#000000">[guess_is_lower]</text>
</g>
<!-- low&#45;&gt;high -->
<g id="edge9" class="edge">
<title>low&#45;&gt;high</title>
<path fill="none" stroke="#0000ff" d="M382.053,-60.5361C356.3247,-53.5727 317.1192,-46.7619 285,-57.5264 277.0405,-60.194 269.3412,-64.7216 262.4952,-69.7125"/>
<polygon fill="#0000ff" stroke="#0000ff" points="259.9953,-67.2274 254.3246,-76.1769 264.3385,-72.7171 259.9953,-67.2274"/>
<text text-anchor="middle" x="317" y="-70.3264" font-family="Times,serif" font-size="9.00" fill="#000000">guess</text>
<text text-anchor="middle" x="317" y="-60.3264" font-family="Times,serif" font-size="9.00" fill="#000000">[guess_is_higher]</text>
</g>
<!-- low&#45;&gt;lose -->
<g id="edge6" class="edge">
<title>low&#45;&gt;lose</title>
<path fill="none" stroke="#0000ff" d="M436.5444,-76.4787C469.3144,-84.9029 524.8574,-99.1813 562.9248,-108.9672"/>
<polygon fill="#0000ff" stroke="#0000ff" points="562.1262,-112.3757 572.6827,-111.4757 563.869,-105.5961 562.1262,-112.3757"/>
<text text-anchor="middle" x="512.5" y="-118.3264" font-family="Times,serif" font-size="9.00" fill="#000000">guess</text>
<text text-anchor="middle" x="512.5" y="-108.3264" font-family="Times,serif" font-size="9.00" fill="#000000">[max_guesses_reached]</text>
</g>
<!-- low&#45;&gt;won -->
<g id="edge7" class="edge">
<title>low&#45;&gt;won</title>
<path fill="none" stroke="#0000ff" d="M436.5444,-66.8845C469.175,-63.697 524.3851,-58.3037 562.4379,-54.5865"/>
<polygon fill="#0000ff" stroke="#0000ff" points="563.0704,-58.0414 572.6827,-53.5857 562.3898,-51.0746 563.0704,-58.0414"/>
<text text-anchor="middle" x="512.5" y="-75.3264" font-family="Times,serif" font-size="9.00" fill="#000000">guess</text>
<text text-anchor="middle" x="512.5" y="-65.3264" font-family="Times,serif" font-size="9.00" fill="#000000">[guess_is_equal]</text>
</g>
<!-- low&#45;&gt;low -->
<g id="edge8" class="edge">
<title>low&#45;&gt;low</title>
<path fill="none" stroke="#0000ff" d="M392.8564,-87.6791C390.2959,-97.0655 395.8438,-105.5264 409.5,-105.5264 417.8218,-105.5264 423.1326,-102.3845 425.4325,-97.806"/>
<polygon fill="#0000ff" stroke="#0000ff" points="428.9344,-97.8997 426.1436,-87.6791 421.9516,-97.4094 428.9344,-97.8997"/>
<text text-anchor="middle" x="409.5" y="-118.3264" font-family="Times,serif" font-size="9.00" fill="#000000">guess</text>
<text text-anchor="middle" x="409.5" y="-108.3264" font-family="Times,serif" font-size="9.00" fill="#000000">[guess_is_lower]</text>
</g>
</g>
</svg>
