<?xml version="1.0" encoding="UTF-8" standalone="no"?>
<!DOCTYPE svg PUBLIC "-//W3C//DTD SVG 1.1//EN"
 "http://www.w3.org/Graphics/SVG/1.1/DTD/svg11.dtd">
<!-- Generated by graphviz version 2.43.0 (0)
 -->
<!-- Title: list Pages: 1 -->
<svg width="944pt" height="198pt"
 viewBox="0.00 0.00 944.00 197.61" xmlns="http://www.w3.org/2000/svg" xmlns:xlink="http://www.w3.org/1999/xlink">
<g id="graph0" class="graph" transform="scale(1 1) rotate(0) translate(4 193.61)">
<title>list</title>
<polygon fill="white" stroke="transparent" points="-4,4 -4,-193.61 940,-193.61 940,4 -4,4"/>
<text text-anchor="middle" x="468" y="-7" font-family="Times,serif" font-size="10.00">GuessTheNumberMachine</text>
<!-- i -->
<g id="node1" class="node">
<title>i</title>
<ellipse fill="black" stroke="black" cx="7" cy="-141.61" rx="7" ry="7"/>
<text text-anchor="middle" x="7" y="-141.31" font-family="Times,serif" font-size="1.00">i</text>
</g>
<!-- start -->
<g id="node2" class="node">
<title>start</title>
<path fill="white" stroke="black" d="M165,-159.61C165,-159.61 63,-159.61 63,-159.61 57,-159.61 51,-153.61 51,-147.61 51,-147.61 51,-135.61 51,-135.61 51,-129.61 57,-123.61 63,-123.61 63,-123.61 165,-123.61 165,-123.61 171,-123.61 177,-129.61 177,-135.61 177,-135.61 177,-147.61 177,-147.61 177,-153.61 171,-159.61 165,-159.61"/>
<text text-anchor="middle" x="114" y="-144.61" font-family="Times,serif" font-size="10.00">Start</text>
<text text-anchor="middle" x="114" y="-133.61" font-family="Times,serif" font-size="10.00">entry / on_enter_start</text>
</g>
<!-- i&#45;&gt;start -->
<g id="edge1" class="edge">
<title>i&#45;&gt;start</title>
<path fill="none" stroke="blue" d="M14.25,-141.61C20.14,-141.61 29.64,-141.61 40.49,-141.61"/>
<polygon fill="blue" stroke="blue" points="40.76,-145.11 50.76,-141.61 40.76,-138.11 40.76,-145.11"/>
</g>
<!-- high -->
<g id="node3" class="node">
<title>high</title>
<path fill="white" stroke="black" d="M409,-113.61C409,-113.61 307,-113.61 307,-113.61 301,-113.61 295,-107.61 295,-101.61 295,-101.61 295,-89.61 295,-89.61 295,-83.61 301,-77.61 307,-77.61 307,-77.61 409,-77.61 409,-77.61 415,-77.61 421,-83.61 421,-89.61 421,-89.61 421,-101.61 421,-101.61 421,-107.61 415,-113.61 409,-113.61"/>
<text text-anchor="middle" x="358" y="-98.61" font-family="Times,serif" font-size="10.00">High</text>
<text text-anchor="middle" x="358" y="-87.61" font-family="Times,serif" font-size="10.00">entry / on_enter_high</text>
</g>
<!-- start&#45;&gt;high -->
<g id="edge11" class="edge">
<title>start&#45;&gt;high</title>
<path fill="none" stroke="blue" d="M177.01,-129.83C209.89,-123.58 250.47,-115.86 284.77,-109.34"/>
<polygon fill="blue" stroke="blue" points="285.56,-112.76 294.73,-107.45 284.26,-105.88 285.56,-112.76"/>
<text text-anchor="middle" x="236" y="-137.41" font-family="Times,serif" font-size="9.00">guess</text>
<text text-anchor="middle" x="236" y="-127.41" font-family="Times,serif" font-size="9.00">[guess_is_higher]</text>
</g>
<!-- low -->
<g id="node6" class="node">
<title>low</title>
<path fill="white" stroke="black" d="M647,-88.61C647,-88.61 551,-88.61 551,-88.61 545,-88.61 539,-82.61 539,-76.61 539,-76.61 539,-64.61 539,-64.61 539,-58.61 545,-52.61 551,-52.61 551,-52.61 647,-52.61 647,-52.61 653,-52.61 659,-58.61 659,-64.61 659,-64.61 659,-76.61 659,-76.61 659,-82.61 653,-88.61 647,-88.61"/>
<text text-anchor="middle" x="599" y="-73.61" font-family="Times,serif" font-size="10.00">Low</text>
<text text-anchor="middle" x="599" y="-62.61" font-family="Times,serif" font-size="10.00">entry / on_enter_low</text>
</g>
<!-- start&#45;&gt;low -->
<g id="edge10" class="edge">
<title>start&#45;&gt;low</title>
<path fill="none" stroke="blue" d="M177.05,-155.51C239.44,-167.15 338.01,-179.14 421,-160.61 474.43,-148.68 529.69,-116.92 563.94,-94.52"/>
<polygon fill="blue" stroke="blue" points="566.21,-97.21 572.6,-88.76 562.34,-91.39 566.21,-97.21"/>
<text text-anchor="middle" x="358" y="-182.41" font-family="Times,serif" font-size="9.00">guess</text>
<text text-anchor="middle" x="358" y="-172.41" font-family="Times,serif" font-size="9.00">[guess_is_lower]</text>
</g>
<!-- high&#45;&gt;high -->
<g id="edge5" class="edge">
<title>high&#45;&gt;high</title>
<path fill="none" stroke="blue" d="M335.93,-113.77C332.53,-123.15 339.89,-131.61 358,-131.61 369.04,-131.61 376.08,-128.47 379.13,-123.89"/>
<polygon fill="blue" stroke="blue" points="382.63,-124.05 380.07,-113.77 375.66,-123.4 382.63,-124.05"/>
<text text-anchor="middle" x="358" y="-144.41" font-family="Times,serif" font-size="9.00">guess</text>
<text text-anchor="middle" x="358" y="-134.41" font-family="Times,serif" font-size="9.00">[guess_is_higher]</text>
</g>
<!-- lose -->
<g id="node4" class="node">
<title>lose</title>
<path fill="white" stroke="black" d="M919.5,-138.61C919.5,-138.61 820.5,-138.61 820.5,-138.61 814.5,-138.61 808.5,-132.61 808.5,-126.61 808.5,-126.61 808.5,-114.61 808.5,-114.61 808.5,-108.61 814.5,-102.61 820.5,-102.61 820.5,-102.61 919.5,-102.61 919.5,-102.61 925.5,-102.61 931.5,-108.61 931.5,-114.61 931.5,-114.61 931.5,-126.61 931.5,-126.61 931.5,-132.61 925.5,-138.61 919.5,-138.61"/>
<path fill="none" stroke="black" d="M923.5,-142.61C923.5,-142.61 816.5,-142.61 816.5,-142.61 810.5,-142.61 804.5,-136.61 804.5,-130.61 804.5,-130.61 804.5,-110.61 804.5,-110.61 804.5,-104.61 810.5,-98.61 816.5,-98.61 816.5,-98.61 923.5,-98.61 923.5,-98.61 929.5,-98.61 935.5,-104.61 935.5,-110.61 935.5,-110.61 935.5,-130.61 935.5,-130.61 935.5,-136.61 929.5,-142.61 923.5,-142.61"/>
<text text-anchor="middle" x="870" y="-123.61" font-family="Times,serif" font-size="10.00">Lose</text>
<text text-anchor="middle" x="870" y="-112.61" font-family="Times,serif" font-size="10.00">entry / on_enter_lose</text>
</g>
<!-- high&#45;&gt;lose -->
<g id="edge2" class="edge">
<title>high&#45;&gt;lose</title>
<path fill="none" stroke="blue" d="M421.01,-109.6C427.09,-110.96 433.16,-112.32 439,-113.61 483.42,-123.5 493.76,-130.7 539,-135.61 648.18,-147.48 676.49,-136.91 786,-128.61 788.68,-128.41 791.41,-128.2 794.17,-127.97"/>
<polygon fill="blue" stroke="blue" points="794.56,-131.45 804.23,-127.12 793.97,-124.47 794.56,-131.45"/>
<text text-anchor="middle" x="599" y="-153.41" font-family="Times,serif" font-size="9.00">guess</text>
<text text-anchor="middle" x="599" y="-143.41" font-family="Times,serif" font-size="9.00">[max_guesses_reached]</text>
</g>
<!-- won -->
<g id="node5" class="node">
<title>won</title>
<path fill="white" stroke="black" d="M920,-69.61C920,-69.61 820,-69.61 820,-69.61 814,-69.61 808,-63.61 808,-57.61 808,-57.61 808,-45.61 808,-45.61 808,-39.61 814,-33.61 820,-33.61 820,-33.61 920,-33.61 920,-33.61 926,-33.61 932,-39.61 932,-45.61 932,-45.61 932,-57.61 932,-57.61 932,-63.61 926,-69.61 920,-69.61"/>
<path fill="none" stroke="black" d="M924,-73.61C924,-73.61 816,-73.61 816,-73.61 810,-73.61 804,-67.61 804,-61.61 804,-61.61 804,-41.61 804,-41.61 804,-35.61 810,-29.61 816,-29.61 816,-29.61 924,-29.61 924,-29.61 930,-29.61 936,-35.61 936,-41.61 936,-41.61 936,-61.61 936,-61.61 936,-67.61 930,-73.61 924,-73.61"/>
<text text-anchor="middle" x="870" y="-54.61" font-family="Times,serif" font-size="10.00">Won</text>
<text text-anchor="middle" x="870" y="-43.61" font-family="Times,serif" font-size="10.00">entry / on_enter_won</text>
</g>
<!-- high&#45;&gt;won -->
<g id="edge3" class="edge">
<title>high&#45;&gt;won</title>
<path fill="none" stroke="blue" d="M386.21,-77.53C401.27,-68.16 420.61,-57.13 439,-49.61 481.51,-32.24 493.45,-29.44 539,-23.61 626.07,-12.48 726.65,-24.58 793.66,-36.17"/>
<polygon fill="blue" stroke="blue" points="793.25,-39.65 803.71,-37.95 794.47,-32.76 793.25,-39.65"/>
<text text-anchor="middle" x="599" y="-36.41" font-family="Times,serif" font-size="9.00">guess</text>
<text text-anchor="middle" x="599" y="-26.41" font-family="Times,serif" font-size="9.00">[guess_is_equal]</text>
</g>
<!-- high&#45;&gt;low -->
<g id="edge4" class="edge">
<title>high&#45;&gt;low</title>
<path fill="none" stroke="blue" d="M421.03,-91.72C451.25,-89.55 488.07,-86.5 521,-82.61 523.53,-82.32 526.1,-82 528.7,-81.66"/>
<polygon fill="blue" stroke="blue" points="529.35,-85.11 538.79,-80.3 528.41,-78.17 529.35,-85.11"/>
<text text-anchor="middle" x="480" y="-102.41" font-family="Times,serif" font-size="9.00">guess</text>
<text text-anchor="middle" x="480" y="-92.41" font-family="Times,serif" font-size="9.00">[guess_is_lower]</text>
</g>
<!-- low&#45;&gt;high -->
<g id="edge9" class="edge">
<title>low&#45;&gt;high</title>
<path fill="none" stroke="blue" d="M538.9,-58.06C508.72,-53.68 471.58,-51.45 439,-58.61 425.42,-61.6 411.41,-67.13 398.98,-73.02"/>
<polygon fill="blue" stroke="blue" points="397.22,-69.98 389.81,-77.55 400.33,-76.25 397.22,-69.98"/>
<text text-anchor="middle" x="480" y="-71.41" font-family="Times,serif" font-size="9.00">guess</text>
<text text-anchor="middle" x="480" y="-61.41" font-family="Times,serif" font-size="9.00">[guess_is_higher]</text>
</g>
<!-- low&#45;&gt;lose -->
<g id="edge6" class="edge">
<title>low&#45;&gt;lose</title>
<path fill="none" stroke="blue" d="M659.26,-82.23C665.25,-83.39 671.25,-84.53 677,-85.61 715.49,-92.87 758.36,-100.71 793.82,-107.13"/>
<polygon fill="blue" stroke="blue" points="793.62,-110.65 804.09,-108.98 794.87,-103.76 793.62,-110.65"/>
<text text-anchor="middle" x="731.5" y="-117.41" font-family="Times,serif" font-size="9.00">guess</text>
<text text-anchor="middle" x="731.5" y="-107.41" font-family="Times,serif" font-size="9.00">[max_guesses_reached]</text>
</g>
<!-- low&#45;&gt;won -->
<g id="edge7" class="edge">
<title>low&#45;&gt;won</title>
<path fill="none" stroke="blue" d="M659.03,-66.45C698.69,-63.64 751.3,-59.93 793.93,-56.92"/>
<polygon fill="blue" stroke="blue" points="794.25,-60.4 803.98,-56.21 793.76,-53.42 794.25,-60.4"/>
<text text-anchor="middle" x="731.5" y="-77.41" font-family="Times,serif" font-size="9.00">guess</text>
<text text-anchor="middle" x="731.5" y="-67.41" font-family="Times,serif" font-size="9.00">[guess_is_equal]</text>
</g>
<!-- low&#45;&gt;low -->
<g id="edge8" class="edge">
<title>low&#45;&gt;low</title>
<path fill="none" stroke="blue" d="M577.65,-88.77C574.37,-98.15 581.48,-106.61 599,-106.61 609.67,-106.61 616.49,-103.47 619.44,-98.89"/>
<polygon fill="blue" stroke="blue" points="622.94,-99.04 620.35,-88.77 615.96,-98.41 622.94,-99.04"/>
<text text-anchor="middle" x="599" y="-119.41" font-family="Times,serif" font-size="9.00">guess</text>
<text text-anchor="middle" x="599" y="-109.41" font-family="Times,serif" font-size="9.00">[guess_is_lower]</text>
</g>
</g>
</svg>
