<?xml version="1.0" encoding="UTF-8" standalone="no"?>
<!DOCTYPE svg PUBLIC "-//W3C//DTD SVG 1.1//EN"
 "http://www.w3.org/Graphics/SVG/1.1/DTD/svg11.dtd">
<!-- Generated by graphviz version 2.40.1 (20161225.0304)
 -->
<!-- Title: list Pages: 1 -->
<svg width="384pt" height="71pt"
 viewBox="0.00 0.00 384.00 71.00" xmlns="http://www.w3.org/2000/svg" xmlns:xlink="http://www.w3.org/1999/xlink">
<g id="graph0" class="graph" transform="scale(1 1) rotate(0) translate(4 67)">
<title>list</title>
<polygon fill="#ffffff" stroke="transparent" points="-4,4 -4,-67 380,-67 380,4 -4,4"/>
<text text-anchor="middle" x="188" y="-7" font-family="Times,serif" font-size="10.00" fill="#000000">AllActionsMachine</text>
<!-- i -->
<g id="node1" class="node">
<title>i</title>
<ellipse fill="#000000" stroke="#000000" cx="7" cy="-41" rx="7" ry="7"/>
<text text-anchor="middle" x="7" y="-40.7" font-family="Times,serif" font-size="1.00" fill="#000000">i</text>
</g>
<!-- initial -->
<g id="node2" class="node">
<title>initial</title>
<path fill="#ffffff" stroke="#000000" d="M93,-59C93,-59 63,-59 63,-59 57,-59 51,-53 51,-47 51,-47 51,-35 51,-35 51,-29 57,-23 63,-23 63,-23 93,-23 93,-23 99,-23 105,-29 105,-35 105,-35 105,-47 105,-47 105,-53 99,-59 93,-59"/>
<text text-anchor="middle" x="78" y="-38.5" font-family="Times,serif" font-size="10.00" fill="#000000">Initial</text>
</g>
<!-- i&#45;&gt;initial -->
<g id="edge1" class="edge">
<title>i&#45;&gt;initial</title>
<path fill="none" stroke="#0000ff" d="M14.0673,-41C20.4861,-41 30.4839,-41 40.6823,-41"/>
<polygon fill="#0000ff" stroke="#0000ff" points="40.8224,-44.5001 50.8223,-41 40.8223,-37.5001 40.8224,-44.5001"/>
</g>
<!-- final -->
<g id="node3" class="node">
<title>final</title>
<path fill="#ffffff" stroke="#000000" d="M360,-59C360,-59 330,-59 330,-59 324,-59 318,-53 318,-47 318,-47 318,-35 318,-35 318,-29 324,-23 330,-23 330,-23 360,-23 360,-23 366,-23 372,-29 372,-35 372,-35 372,-47 372,-47 372,-53 366,-59 360,-59"/>
<path fill="none" stroke="#000000" d="M364,-63C364,-63 326,-63 326,-63 320,-63 314,-57 314,-51 314,-51 314,-31 314,-31 314,-25 320,-19 326,-19 326,-19 364,-19 364,-19 370,-19 376,-25 376,-31 376,-31 376,-51 376,-51 376,-57 370,-63 364,-63"/>
<text text-anchor="middle" x="345" y="-38.5" font-family="Times,serif" font-size="10.00" fill="#000000">Final</text>
</g>
<!-- initial&#45;&gt;final -->
<g id="edge2" class="edge">
<title>initial&#45;&gt;final</title>
<path fill="none" stroke="#0000ff" d="M105.0707,-41C151.9013,-41 248.3148,-41 303.6054,-41"/>
<polygon fill="#0000ff" stroke="#0000ff" points="303.759,-44.5001 313.759,-41 303.759,-37.5001 303.759,-44.5001"/>
<text text-anchor="middle" x="209.5" y="-53.8" font-family="Times,serif" font-size="9.00" fill="#000000">go</text>
<text text-anchor="middle" x="209.5" y="-43.8" font-family="Times,serif" font-size="9.00" fill="#000000">[condition_1, condition_2, !unless_1, !unless_2]</text>
</g>
</g>
</svg>
