<?xml version="1.0" encoding="UTF-8" standalone="no"?>
<!DOCTYPE svg PUBLIC "-//W3C//DTD SVG 1.1//EN"
 "http://www.w3.org/Graphics/SVG/1.1/DTD/svg11.dtd">
<!-- Generated by graphviz version 2.43.0 (0)
 -->
<!-- Title: list Pages: 1 -->
<svg width="736pt" height="133pt"
 viewBox="0.00 0.00 736.00 133.00" xmlns="http://www.w3.org/2000/svg" xmlns:xlink="http://www.w3.org/1999/xlink">
<g id="graph0" class="graph" transform="scale(1 1) rotate(0) translate(4 129)">
<title>list</title>
<polygon fill="white" stroke="transparent" points="-4,4 -4,-129 732,-129 732,4 -4,4"/>
<text text-anchor="middle" x="364" y="-7" font-family="Times,serif" font-size="10.00">OrderControl</text>
<!-- i -->
<g id="node1" class="node">
<title>i</title>
<ellipse fill="black" stroke="black" cx="7" cy="-41" rx="7" ry="7"/>
<text text-anchor="middle" x="7" y="-40.7" font-family="Times,serif" font-size="1.00">i</text>
</g>
<!-- waiting_for_payment -->
<g id="node2" class="node">
<title>waiting_for_payment</title>
<path fill="white" stroke="black" d="M160,-59C160,-59 63,-59 63,-59 57,-59 51,-53 51,-47 51,-47 51,-35 51,-35 51,-29 57,-23 63,-23 63,-23 160,-23 160,-23 166,-23 172,-29 172,-35 172,-35 172,-47 172,-47 172,-53 166,-59 160,-59"/>
<text text-anchor="middle" x="111.5" y="-38.5" font-family="Times,serif" font-size="10.00">Waiting for payment</text>
</g>
<!-- i&#45;&gt;waiting_for_payment -->
<g id="edge1" class="edge">
<title>i&#45;&gt;waiting_for_payment</title>
<path fill="none" stroke="blue" d="M14.1,-41C19.98,-41 29.55,-41 40.45,-41"/>
<polygon fill="blue" stroke="blue" points="40.75,-44.5 50.75,-41 40.75,-37.5 40.75,-44.5"/>
</g>
<!-- waiting_for_payment&#45;&gt;waiting_for_payment -->
<g id="edge4" class="edge">
<title>waiting_for_payment&#45;&gt;waiting_for_payment</title>
<path fill="none" stroke="blue" d="M104.44,-59.15C103.36,-68.54 105.71,-77 111.5,-77 115.03,-77 117.28,-73.86 118.25,-69.28"/>
<polygon fill="blue" stroke="blue" points="121.76,-69.25 118.56,-59.15 114.76,-69.04 121.76,-69.25"/>
<text text-anchor="middle" x="111.5" y="-79.8" font-family="Times,serif" font-size="9.00">add_to_order</text>
</g>
<!-- waiting_for_payment&#45;&gt;waiting_for_payment -->
<g id="edge6" class="edge">
<title>waiting_for_payment&#45;&gt;waiting_for_payment</title>
<path fill="none" stroke="blue" d="M99.67,-59.26C93.54,-76.4 97.48,-95 111.5,-95 122.78,-95 127.53,-82.96 125.77,-69.32"/>
<polygon fill="blue" stroke="blue" points="129.08,-68.15 123.33,-59.26 122.28,-69.8 129.08,-68.15"/>
<text text-anchor="middle" x="111.5" y="-107.8" font-family="Times,serif" font-size="9.00">receive_payment</text>
<text text-anchor="middle" x="111.5" y="-97.8" font-family="Times,serif" font-size="9.00">[!payments_enough]</text>
</g>
<!-- processing -->
<g id="node4" class="node">
<title>processing</title>
<path fill="white" stroke="black" d="M359,-59C359,-59 311,-59 311,-59 305,-59 299,-53 299,-47 299,-47 299,-35 299,-35 299,-29 305,-23 311,-23 311,-23 359,-23 359,-23 365,-23 371,-29 371,-35 371,-35 371,-47 371,-47 371,-53 365,-59 359,-59"/>
<text text-anchor="middle" x="335" y="-38.5" font-family="Times,serif" font-size="10.00">Processing</text>
</g>
<!-- waiting_for_payment&#45;&gt;processing -->
<g id="edge5" class="edge">
<title>waiting_for_payment&#45;&gt;processing</title>
<path fill="none" stroke="blue" d="M172.15,-41C208.84,-41 255.12,-41 288.79,-41"/>
<polygon fill="blue" stroke="blue" points="288.81,-44.5 298.81,-41 288.81,-37.5 288.81,-44.5"/>
<text text-anchor="middle" x="235.5" y="-53.8" font-family="Times,serif" font-size="9.00">receive_payment</text>
<text text-anchor="middle" x="235.5" y="-43.8" font-family="Times,serif" font-size="9.00">[payments_enough]</text>
</g>
<!-- completed -->
<g id="node3" class="node">
<title>completed</title>
<path fill="white" stroke="black" d="M712,-59C712,-59 664,-59 664,-59 658,-59 652,-53 652,-47 652,-47 652,-35 652,-35 652,-29 658,-23 664,-23 664,-23 712,-23 712,-23 718,-23 724,-29 724,-35 724,-35 724,-47 724,-47 724,-53 718,-59 712,-59"/>
<path fill="none" stroke="black" d="M716,-63C716,-63 660,-63 660,-63 654,-63 648,-57 648,-51 648,-51 648,-31 648,-31 648,-25 654,-19 660,-19 660,-19 716,-19 716,-19 722,-19 728,-25 728,-31 728,-31 728,-51 728,-51 728,-57 722,-63 716,-63"/>
<text text-anchor="middle" x="688" y="-38.5" font-family="Times,serif" font-size="10.00">Completed</text>
</g>
<!-- shipping -->
<g id="node5" class="node">
<title>shipping</title>
<path fill="white" stroke="black" d="M550,-59C550,-59 511,-59 511,-59 505,-59 499,-53 499,-47 499,-47 499,-35 499,-35 499,-29 505,-23 511,-23 511,-23 550,-23 550,-23 556,-23 562,-29 562,-35 562,-35 562,-47 562,-47 562,-53 556,-59 550,-59"/>
<text text-anchor="middle" x="530.5" y="-38.5" font-family="Times,serif" font-size="10.00">Shipping</text>
</g>
<!-- processing&#45;&gt;shipping -->
<g id="edge2" class="edge">
<title>processing&#45;&gt;shipping</title>
<path fill="none" stroke="blue" d="M371.04,-41C404.11,-41 453.67,-41 488.55,-41"/>
<polygon fill="blue" stroke="blue" points="488.86,-44.5 498.86,-41 488.86,-37.5 488.86,-44.5"/>
<text text-anchor="middle" x="435" y="-53.8" font-family="Times,serif" font-size="9.00">process_order</text>
<text text-anchor="middle" x="435" y="-43.8" font-family="Times,serif" font-size="9.00">[payment_received]</text>
</g>
<!-- shipping&#45;&gt;completed -->
<g id="edge3" class="edge">
<title>shipping&#45;&gt;completed</title>
<path fill="none" stroke="blue" d="M562.22,-41C583.67,-41 612.78,-41 637.48,-41"/>
<polygon fill="blue" stroke="blue" points="637.77,-44.5 647.77,-41 637.77,-37.5 637.77,-44.5"/>
<text text-anchor="middle" x="605" y="-43.8" font-family="Times,serif" font-size="9.00">ship_order</text>
</g>
</g>
</svg>
