<?xml version="1.0" encoding="UTF-8" standalone="no"?>
<!DOCTYPE svg PUBLIC "-//W3C//DTD SVG 1.1//EN"
 "http://www.w3.org/Graphics/SVG/1.1/DTD/svg11.dtd">
<!-- Generated by graphviz version 2.43.0 (0)
 -->
<!-- Title: list Pages: 1 -->
<svg width="343pt" height="93pt"
 viewBox="0.00 0.00 343.00 93.00" xmlns="http://www.w3.org/2000/svg" xmlns:xlink="http://www.w3.org/1999/xlink">
<g id="graph0" class="graph" transform="scale(1 1) rotate(0) translate(4 89)">
<title>list</title>
<polygon fill="white" stroke="transparent" points="-4,4 -4,-89 339,-89 339,4 -4,4"/>
<text text-anchor="middle" x="167.5" y="-7" font-family="Times,serif" font-size="10.00">TrafficLightMachine</text>
<!-- i -->
<g id="node1" class="node">
<title>i</title>
<ellipse fill="black" stroke="black" cx="7" cy="-37" rx="7" ry="7"/>
<text text-anchor="middle" x="7" y="-36.7" font-family="Times,serif" font-size="1.00">i</text>
</g>
<!-- green -->
<g id="node2" class="node">
<title>green</title>
<path fill="white" stroke="black" d="M93,-55C93,-55 63,-55 63,-55 57,-55 51,-49 51,-43 51,-43 51,-31 51,-31 51,-25 57,-19 63,-19 63,-19 93,-19 93,-19 99,-19 105,-25 105,-31 105,-31 105,-43 105,-43 105,-49 99,-55 93,-55"/>
<text text-anchor="middle" x="78" y="-34.5" font-family="Times,serif" font-size="10.00">Green</text>
</g>
<!-- i&#45;&gt;green -->
<g id="edge1" class="edge">
<title>i&#45;&gt;green</title>
<path fill="none" stroke="blue" d="M14.37,-37C20.57,-37 30.54,-37 40.71,-37"/>
<polygon fill="blue" stroke="blue" points="40.82,-40.5 50.82,-37 40.82,-33.5 40.82,-40.5"/>
</g>
<!-- yellow -->
<g id="node3" class="node">
<title>yellow</title>
<path fill="white" stroke="black" d="M208,-85C208,-85 178,-85 178,-85 172,-85 166,-79 166,-73 166,-73 166,-61 166,-61 166,-55 172,-49 178,-49 178,-49 208,-49 208,-49 214,-49 220,-55 220,-61 220,-61 220,-73 220,-73 220,-79 214,-85 208,-85"/>
<text text-anchor="middle" x="193" y="-64.5" font-family="Times,serif" font-size="10.00">Yellow</text>
</g>
<!-- green&#45;&gt;yellow -->
<g id="edge2" class="edge">
<title>green&#45;&gt;yellow</title>
<path fill="none" stroke="blue" d="M105.21,-43.96C120.33,-47.97 139.55,-53.08 156.06,-57.46"/>
<polygon fill="blue" stroke="blue" points="155.37,-60.9 165.93,-60.08 157.17,-54.13 155.37,-60.9"/>
<text text-anchor="middle" x="135.5" y="-56.8" font-family="Times,serif" font-size="9.00">cycle</text>
</g>
<!-- red -->
<g id="node4" class="node">
<title>red</title>
<path fill="white" stroke="black" d="M323,-55C323,-55 293,-55 293,-55 287,-55 281,-49 281,-43 281,-43 281,-31 281,-31 281,-25 287,-19 293,-19 293,-19 323,-19 323,-19 329,-19 335,-25 335,-31 335,-31 335,-43 335,-43 335,-49 329,-55 323,-55"/>
<text text-anchor="middle" x="308" y="-34.5" font-family="Times,serif" font-size="10.00">Red</text>
</g>
<!-- yellow&#45;&gt;red -->
<g id="edge4" class="edge">
<title>yellow&#45;&gt;red</title>
<path fill="none" stroke="blue" d="M220.21,-60.04C235.33,-56.03 254.55,-50.92 271.06,-46.54"/>
<polygon fill="blue" stroke="blue" points="272.17,-49.87 280.93,-43.92 270.37,-43.1 272.17,-49.87"/>
<text text-anchor="middle" x="250.5" y="-56.8" font-family="Times,serif" font-size="9.00">cycle</text>
</g>
<!-- red&#45;&gt;green -->
<g id="edge3" class="edge">
<title>red&#45;&gt;green</title>
<path fill="none" stroke="blue" d="M280.76,-34.34C263.52,-32.72 240.44,-30.82 220,-30 196.02,-29.04 189.98,-29.04 166,-30 149.39,-30.67 131.04,-32.05 115.5,-33.41"/>
<polygon fill="blue" stroke="blue" points="114.88,-29.95 105.24,-34.34 115.51,-36.92 114.88,-29.95"/>
<text text-anchor="middle" x="193" y="-32.8" font-family="Times,serif" font-size="9.00">cycle</text>
</g>
</g>
</svg>
