<?xml version="1.0" encoding="UTF-8" standalone="no"?>
<!DOCTYPE svg PUBLIC "-//W3C//DTD SVG 1.1//EN"
 "http://www.w3.org/Graphics/SVG/1.1/DTD/svg11.dtd">
<!-- Generated by graphviz version 2.40.1 (20161225.0304)
 -->
<!-- Title: list Pages: 1 -->
<svg width="624pt" height="129pt"
 viewBox="0.00 0.00 624.00 129.00" xmlns="http://www.w3.org/2000/svg" xmlns:xlink="http://www.w3.org/1999/xlink">
<g id="graph0" class="graph" transform="scale(1 1) rotate(0) translate(4 125)">
<title>list</title>
<polygon fill="#ffffff" stroke="transparent" points="-4,4 -4,-125 620,-125 620,4 -4,4"/>
<text text-anchor="middle" x="308" y="-7" font-family="Times,serif" font-size="10.00" fill="#000000">OrderControl</text>
<!-- i -->
<g id="node1" class="node">
<title>i</title>
<ellipse fill="#000000" stroke="#000000" cx="7" cy="-37" rx="7" ry="7"/>
<text text-anchor="middle" x="7" y="-36.7" font-family="Times,serif" font-size="1.00" fill="#000000">i</text>
</g>
<!-- waiting_for_payment -->
<g id="node2" class="node">
<title>waiting_for_payment</title>
<path fill="#ffffff" stroke="#000000" d="M140,-55C140,-55 63,-55 63,-55 57,-55 51,-49 51,-43 51,-43 51,-31 51,-31 51,-25 57,-19 63,-19 63,-19 140,-19 140,-19 146,-19 152,-25 152,-31 152,-31 152,-43 152,-43 152,-49 146,-55 140,-55"/>
<text text-anchor="middle" x="101.5" y="-34.5" font-family="Times,serif" font-size="10.00" fill="#000000">Waiting for payment</text>
</g>
<!-- i&#45;&gt;waiting_for_payment -->
<g id="edge1" class="edge">
<title>i&#45;&gt;waiting_for_payment</title>
<path fill="none" stroke="#0000ff" d="M14.1029,-37C20.347,-37 30.0979,-37 40.859,-37"/>
<polygon fill="#0000ff" stroke="#0000ff" points="40.9539,-40.5001 50.9539,-37 40.9539,-33.5001 40.9539,-40.5001"/>
</g>
<!-- waiting_for_payment&#45;&gt;waiting_for_payment -->
<g id="edge4" class="edge">
<title>waiting_for_payment&#45;&gt;waiting_for_payment</title>
<path fill="none" stroke="#0000ff" d="M95.3491,-55.1527C94.4028,-64.5391 96.4531,-73 101.5,-73 104.5754,-73 106.5381,-69.8581 107.3881,-65.2796"/>
<polygon fill="#0000ff" stroke="#0000ff" points="110.8902,-65.2402 107.6509,-55.1527 103.8925,-65.0585 110.8902,-65.2402"/>
<text text-anchor="middle" x="101.5" y="-75.8" font-family="Times,serif" font-size="9.00" fill="#000000">add_to_order</text>
</g>
<!-- waiting_for_payment&#45;&gt;waiting_for_payment -->
<g id="edge6" class="edge">
<title>waiting_for_payment&#45;&gt;waiting_for_payment</title>
<path fill="none" stroke="#0000ff" d="M91.1904,-55.2576C85.8447,-72.4023 89.2813,-91 101.5,-91 111.3323,-91 115.4779,-78.9576 113.9368,-65.3202"/>
<polygon fill="#0000ff" stroke="#0000ff" points="117.3022,-64.3175 111.8096,-55.2576 110.4536,-65.7653 117.3022,-64.3175"/>
<text text-anchor="middle" x="101.5" y="-103.8" font-family="Times,serif" font-size="9.00" fill="#000000">receive_payment</text>
<text text-anchor="middle" x="101.5" y="-93.8" font-family="Times,serif" font-size="9.00" fill="#000000">[payments_enough]</text>
</g>
<!-- processing -->
<g id="node4" class="node">
<title>processing</title>
<path fill="#ffffff" stroke="#000000" d="M307,-55C307,-55 271,-55 271,-55 265,-55 259,-49 259,-43 259,-43 259,-31 259,-31 259,-25 265,-19 271,-19 271,-19 307,-19 307,-19 313,-19 319,-25 319,-31 319,-31 319,-43 319,-43 319,-49 313,-55 307,-55"/>
<text text-anchor="middle" x="289" y="-34.5" font-family="Times,serif" font-size="10.00" fill="#000000">Processing</text>
</g>
<!-- waiting_for_payment&#45;&gt;processing -->
<g id="edge5" class="edge">
<title>waiting_for_payment&#45;&gt;processing</title>
<path fill="none" stroke="#0000ff" d="M152.2402,-37C182.4373,-37 220.2351,-37 248.4369,-37"/>
<polygon fill="#0000ff" stroke="#0000ff" points="248.7398,-40.5001 258.7398,-37 248.7398,-33.5001 248.7398,-40.5001"/>
<text text-anchor="middle" x="205.5" y="-49.8" font-family="Times,serif" font-size="9.00" fill="#000000">receive_payment</text>
<text text-anchor="middle" x="205.5" y="-39.8" font-family="Times,serif" font-size="9.00" fill="#000000">[payments_enough]</text>
</g>
<!-- completed -->
<g id="node3" class="node">
<title>completed</title>
<path fill="#ffffff" stroke="#000000" d="M604,-55C604,-55 566,-55 566,-55 560,-55 554,-49 554,-43 554,-43 554,-31 554,-31 554,-25 560,-19 566,-19 566,-19 604,-19 604,-19 610,-19 616,-25 616,-31 616,-31 616,-43 616,-43 616,-49 610,-55 604,-55"/>
<text text-anchor="middle" x="585" y="-34.5" font-family="Times,serif" font-size="10.00" fill="#000000">Completed</text>
</g>
<!-- shipping -->
<g id="node5" class="node">
<title>shipping</title>
<path fill="#ffffff" stroke="#000000" d="M467,-55C467,-55 437,-55 437,-55 431,-55 425,-49 425,-43 425,-43 425,-31 425,-31 425,-25 431,-19 437,-19 437,-19 467,-19 467,-19 473,-19 479,-25 479,-31 479,-31 479,-43 479,-43 479,-49 473,-55 467,-55"/>
<text text-anchor="middle" x="452" y="-34.5" font-family="Times,serif" font-size="10.00" fill="#000000">Shipping</text>
</g>
<!-- processing&#45;&gt;shipping -->
<g id="edge2" class="edge">
<title>processing&#45;&gt;shipping</title>
<path fill="none" stroke="#0000ff" d="M319.277,-37C346.2542,-37 385.8233,-37 414.7361,-37"/>
<polygon fill="#0000ff" stroke="#0000ff" points="414.863,-40.5001 424.863,-37 414.8629,-33.5001 414.863,-40.5001"/>
<text text-anchor="middle" x="372" y="-49.8" font-family="Times,serif" font-size="9.00" fill="#000000">process_order</text>
<text text-anchor="middle" x="372" y="-39.8" font-family="Times,serif" font-size="9.00" fill="#000000">[payment_received]</text>
</g>
<!-- shipping&#45;&gt;completed -->
<g id="edge3" class="edge">
<title>shipping&#45;&gt;completed</title>
<path fill="none" stroke="#0000ff" d="M479.2355,-37C497.6994,-37 522.4551,-37 543.374,-37"/>
<polygon fill="#0000ff" stroke="#0000ff" points="543.5993,-40.5001 553.5993,-37 543.5993,-33.5001 543.5993,-40.5001"/>
<text text-anchor="middle" x="516.5" y="-39.8" font-family="Times,serif" font-size="9.00" fill="#000000">ship_order</text>
</g>
</g>
</svg>
