<?xml version="1.0" encoding="UTF-8" standalone="no"?>
<!DOCTYPE svg PUBLIC "-//W3C//DTD SVG 1.1//EN"
 "http://www.w3.org/Graphics/SVG/1.1/DTD/svg11.dtd">
<!-- Generated by graphviz version 2.40.1 (20161225.0304)
 -->
<!-- Title: list Pages: 1 -->
<svg width="704pt" height="76pt"
 viewBox="0.00 0.00 704.00 76.00" xmlns="http://www.w3.org/2000/svg" xmlns:xlink="http://www.w3.org/1999/xlink">
<g id="graph0" class="graph" transform="scale(1 1) rotate(0) translate(4 72)">
<title>list</title>
<polygon fill="#ffffff" stroke="transparent" points="-4,4 -4,-72 700,-72 700,4 -4,4"/>
<text text-anchor="middle" x="348" y="-7" font-family="Times,serif" font-size="10.00" fill="#000000">AllActionsMachine</text>
<!-- i -->
<g id="node1" class="node">
<title>i</title>
<ellipse fill="#000000" stroke="#000000" cx="7" cy="-43.5" rx="7" ry="7"/>
<text text-anchor="middle" x="7" y="-43.2" font-family="Times,serif" font-size="1.00" fill="#000000">i</text>
</g>
<!-- initial -->
<g id="node2" class="node">
<title>initial</title>
<path fill="#ffffff" stroke="#000000" d="M297,-64C297,-64 63,-64 63,-64 57,-64 51,-58 51,-52 51,-52 51,-35 51,-35 51,-29 57,-23 63,-23 63,-23 297,-23 297,-23 303,-23 309,-29 309,-35 309,-35 309,-52 309,-52 309,-58 303,-64 297,-64"/>
<text text-anchor="middle" x="180" y="-52" font-family="Times,serif" font-size="10.00" fill="#000000">Initial</text>
<text text-anchor="middle" x="180" y="-41" font-family="Times,serif" font-size="10.00" fill="#000000">entry / on_enter_state, enter_initial_decor, on_enter_initial</text>
<text text-anchor="middle" x="180" y="-30" font-family="Times,serif" font-size="10.00" fill="#000000">exit / on_exit_state, exit_initial_decor, on_exit_initial</text>
</g>
<!-- i&#45;&gt;initial -->
<g id="edge1" class="edge">
<title>i&#45;&gt;initial</title>
<path fill="none" stroke="#0000ff" d="M14.4336,-43.5C20.3862,-43.5 29.5489,-43.5 40.5753,-43.5"/>
<polygon fill="#0000ff" stroke="#0000ff" points="40.7111,-47.0001 50.7111,-43.5 40.711,-40.0001 40.7111,-47.0001"/>
</g>
<!-- final -->
<g id="node3" class="node">
<title>final</title>
<path fill="#ffffff" stroke="#000000" d="M680,-64C680,-64 534,-64 534,-64 528,-64 522,-58 522,-52 522,-52 522,-35 522,-35 522,-29 528,-23 534,-23 534,-23 680,-23 680,-23 686,-23 692,-29 692,-35 692,-35 692,-52 692,-52 692,-58 686,-64 680,-64"/>
<path fill="none" stroke="#000000" d="M684,-68C684,-68 530,-68 530,-68 524,-68 518,-62 518,-56 518,-56 518,-31 518,-31 518,-25 524,-19 530,-19 530,-19 684,-19 684,-19 690,-19 696,-25 696,-31 696,-31 696,-56 696,-56 696,-62 690,-68 684,-68"/>
<text text-anchor="middle" x="607" y="-52" font-family="Times,serif" font-size="10.00" fill="#000000">Final</text>
<text text-anchor="middle" x="607" y="-41" font-family="Times,serif" font-size="10.00" fill="#000000">entry / on_enter_state, on_enter_final</text>
<text text-anchor="middle" x="607" y="-30" font-family="Times,serif" font-size="10.00" fill="#000000">exit / on_exit_state, on_exit_final</text>
</g>
<!-- initial&#45;&gt;final -->
<g id="edge2" class="edge">
<title>initial&#45;&gt;final</title>
<path fill="none" stroke="#0000ff" d="M309.2729,-43.5C372.9677,-43.5 448.5738,-43.5 507.657,-43.5"/>
<polygon fill="#0000ff" stroke="#0000ff" points="507.7397,-47.0001 517.7397,-43.5 507.7397,-40.0001 507.7397,-47.0001"/>
<text text-anchor="middle" x="413.5" y="-56.3" font-family="Times,serif" font-size="9.00" fill="#000000">go</text>
<text text-anchor="middle" x="413.5" y="-46.3" font-family="Times,serif" font-size="9.00" fill="#000000">[condition_1, condition_2, !unless_1, !unless_2]</text>
</g>
</g>
</svg>
