<?xml version="1.0" encoding="UTF-8" standalone="no"?>
<!DOCTYPE svg PUBLIC "-//W3C//DTD SVG 1.1//EN"
 "http://www.w3.org/Graphics/SVG/1.1/DTD/svg11.dtd">
<!-- Generated by graphviz version 2.40.1 (20161225.0304)
 -->
<!-- Title: list Pages: 1 -->
<svg width="370pt" height="65pt"
 viewBox="0.00 0.00 370.00 65.00" xmlns="http://www.w3.org/2000/svg" xmlns:xlink="http://www.w3.org/1999/xlink">
<g id="graph0" class="graph" transform="scale(1 1) rotate(0) translate(4 61)">
<title>list</title>
<polygon fill="#ffffff" stroke="transparent" points="-4,4 -4,-61 366,-61 366,4 -4,4"/>
<text text-anchor="middle" x="181" y="-7" font-family="Times,serif" font-size="10.00" fill="#000000">AllActionsMachine</text>
<!-- i -->
<g id="node1" class="node">
<title>i</title>
<ellipse fill="#000000" stroke="#000000" cx="7" cy="-37" rx="7" ry="7"/>
<text text-anchor="middle" x="7" y="-36.7" font-family="Times,serif" font-size="1.00" fill="#000000">i</text>
</g>
<!-- initial -->
<g id="node2" class="node">
<title>initial</title>
<path fill="#ffffff" stroke="#000000" d="M93,-55C93,-55 63,-55 63,-55 57,-55 51,-49 51,-43 51,-43 51,-31 51,-31 51,-25 57,-19 63,-19 63,-19 93,-19 93,-19 99,-19 105,-25 105,-31 105,-31 105,-43 105,-43 105,-49 99,-55 93,-55"/>
<text text-anchor="middle" x="78" y="-34.5" font-family="Times,serif" font-size="10.00" fill="#000000">Initial</text>
</g>
<!-- i&#45;&gt;initial -->
<g id="edge1" class="edge">
<title>i&#45;&gt;initial</title>
<path fill="none" stroke="#0000ff" d="M14.0673,-37C20.4861,-37 30.4839,-37 40.6823,-37"/>
<polygon fill="#0000ff" stroke="#0000ff" points="40.8224,-40.5001 50.8223,-37 40.8223,-33.5001 40.8224,-40.5001"/>
</g>
<!-- final -->
<g id="node3" class="node">
<title>final</title>
<path fill="#ffffff" stroke="#000000" d="M350,-55C350,-55 320,-55 320,-55 314,-55 308,-49 308,-43 308,-43 308,-31 308,-31 308,-25 314,-19 320,-19 320,-19 350,-19 350,-19 356,-19 362,-25 362,-31 362,-31 362,-43 362,-43 362,-49 356,-55 350,-55"/>
<text text-anchor="middle" x="335" y="-34.5" font-family="Times,serif" font-size="10.00" fill="#000000">Final</text>
</g>
<!-- initial&#45;&gt;final -->
<g id="edge2" class="edge">
<title>initial&#45;&gt;final</title>
<path fill="none" stroke="#0000ff" d="M105.0178,-37C151.1954,-37 245.3773,-37 297.7573,-37"/>
<polygon fill="#0000ff" stroke="#0000ff" points="297.9586,-40.5001 307.9586,-37 297.9586,-33.5001 297.9586,-40.5001"/>
<text text-anchor="middle" x="206.5" y="-49.8" font-family="Times,serif" font-size="9.00" fill="#000000">go</text>
<text text-anchor="middle" x="206.5" y="-39.8" font-family="Times,serif" font-size="9.00" fill="#000000">[condition_1, condition_2, unless_1, unless_2]</text>
</g>
</g>
</svg>
