<?xml version="1.0" encoding="UTF-8" standalone="no"?>
<!DOCTYPE svg PUBLIC "-//W3C//DTD SVG 1.1//EN"
 "http://www.w3.org/Graphics/SVG/1.1/DTD/svg11.dtd">
<!-- Generated by graphviz version 2.40.1 (20161225.0304)
 -->
<!-- Title: list Pages: 1 -->
<svg width="622pt" height="76pt"
 viewBox="0.00 0.00 622.00 76.00" xmlns="http://www.w3.org/2000/svg" xmlns:xlink="http://www.w3.org/1999/xlink">
<g id="graph0" class="graph" transform="scale(1 1) rotate(0) translate(4 72)">
<title>list</title>
<polygon fill="#ffffff" stroke="transparent" points="-4,4 -4,-72 618,-72 618,4 -4,4"/>
<text text-anchor="middle" x="307" y="-7" font-family="Times,serif" font-size="10.00" fill="#000000">AllActionsMachine</text>
<!-- i -->
<g id="node1" class="node">
<title>i</title>
<ellipse fill="#000000" stroke="#000000" cx="7" cy="-43.5" rx="7" ry="7"/>
<text text-anchor="middle" x="7" y="-43.2" font-family="Times,serif" font-size="1.00" fill="#000000">i</text>
</g>
<!-- initial -->
<g id="node2" class="node">
<title>initial</title>
<path fill="#ffffff" stroke="#000000" d="M215,-64C215,-64 63,-64 63,-64 57,-64 51,-58 51,-52 51,-52 51,-35 51,-35 51,-29 57,-23 63,-23 63,-23 215,-23 215,-23 221,-23 227,-29 227,-35 227,-35 227,-52 227,-52 227,-58 221,-64 215,-64"/>
<text text-anchor="middle" x="139" y="-52" font-family="Times,serif" font-size="10.00" fill="#000000">Initial</text>
<text text-anchor="middle" x="139" y="-41" font-family="Times,serif" font-size="10.00" fill="#000000">entry / on_enter_state, on_enter_initial</text>
<text text-anchor="middle" x="139" y="-30" font-family="Times,serif" font-size="10.00" fill="#000000">exit / on_exit_state, on_exit_initial</text>
</g>
<!-- i&#45;&gt;initial -->
<g id="edge1" class="edge">
<title>i&#45;&gt;initial</title>
<path fill="none" stroke="#0000ff" d="M14.0969,-43.5C20.1439,-43.5 29.5992,-43.5 40.6652,-43.5"/>
<polygon fill="#0000ff" stroke="#0000ff" points="40.7593,-47.0001 50.7593,-43.5 40.7593,-40.0001 40.7593,-47.0001"/>
</g>
<!-- final -->
<g id="node3" class="node">
<title>final</title>
<path fill="#ffffff" stroke="#000000" d="M598,-64C598,-64 452,-64 452,-64 446,-64 440,-58 440,-52 440,-52 440,-35 440,-35 440,-29 446,-23 452,-23 452,-23 598,-23 598,-23 604,-23 610,-29 610,-35 610,-35 610,-52 610,-52 610,-58 604,-64 598,-64"/>
<path fill="none" stroke="#000000" d="M602,-68C602,-68 448,-68 448,-68 442,-68 436,-62 436,-56 436,-56 436,-31 436,-31 436,-25 442,-19 448,-19 448,-19 602,-19 602,-19 608,-19 614,-25 614,-31 614,-31 614,-56 614,-56 614,-62 608,-68 602,-68"/>
<text text-anchor="middle" x="525" y="-52" font-family="Times,serif" font-size="10.00" fill="#000000">Final</text>
<text text-anchor="middle" x="525" y="-41" font-family="Times,serif" font-size="10.00" fill="#000000">entry / on_enter_state, on_enter_final</text>
<text text-anchor="middle" x="525" y="-30" font-family="Times,serif" font-size="10.00" fill="#000000">exit / on_exit_state, on_exit_final</text>
</g>
<!-- initial&#45;&gt;final -->
<g id="edge2" class="edge">
<title>initial&#45;&gt;final</title>
<path fill="none" stroke="#0000ff" d="M227.0724,-43.5C286.2999,-43.5 364.4686,-43.5 425.8759,-43.5"/>
<polygon fill="#0000ff" stroke="#0000ff" points="425.9696,-47.0001 435.9696,-43.5 425.9695,-40.0001 425.9696,-47.0001"/>
<text text-anchor="middle" x="331.5" y="-56.3" font-family="Times,serif" font-size="9.00" fill="#000000">go</text>
<text text-anchor="middle" x="331.5" y="-46.3" font-family="Times,serif" font-size="9.00" fill="#000000">[condition_1, condition_2, !unless_1, !unless_2]</text>
</g>
</g>
</svg>
