<?xml version="1.0" encoding="UTF-8" standalone="no"?>
<!DOCTYPE svg PUBLIC "-//W3C//DTD SVG 1.1//EN"
 "http://www.w3.org/Graphics/SVG/1.1/DTD/svg11.dtd">
<!-- Generated by graphviz version 2.43.0 (0)
 -->
<!-- Title: list Pages: 1 -->
<svg width="842pt" height="76pt"
 viewBox="0.00 0.00 842.00 76.00" xmlns="http://www.w3.org/2000/svg" xmlns:xlink="http://www.w3.org/1999/xlink">
<g id="graph0" class="graph" transform="scale(1 1) rotate(0) translate(4 72)">
<title>list</title>
<polygon fill="white" stroke="transparent" points="-4,4 -4,-72 838,-72 838,4 -4,4"/>
<text text-anchor="middle" x="417" y="-7" font-family="Times,serif" font-size="10.00">AllActionsMachine</text>
<!-- i -->
<g id="node1" class="node">
<title>i</title>
<ellipse fill="black" stroke="black" cx="7" cy="-43.5" rx="7" ry="7"/>
<text text-anchor="middle" x="7" y="-43.2" font-family="Times,serif" font-size="1.00">i</text>
</g>
<!-- initial -->
<g id="node2" class="node">
<title>initial</title>
<path fill="white" stroke="black" d="M351,-64C351,-64 63,-64 63,-64 57,-64 51,-58 51,-52 51,-52 51,-35 51,-35 51,-29 57,-23 63,-23 63,-23 351,-23 351,-23 357,-23 363,-29 363,-35 363,-35 363,-52 363,-52 363,-58 357,-64 351,-64"/>
<text text-anchor="middle" x="207" y="-52" font-family="Times,serif" font-size="10.00">Initial</text>
<text text-anchor="middle" x="207" y="-41" font-family="Times,serif" font-size="10.00">entry / on_enter_state, enter_initial_decor, on_enter_initial</text>
<text text-anchor="middle" x="207" y="-30" font-family="Times,serif" font-size="10.00">exit / on_exit_state, exit_initial_decor, on_exit_initial</text>
</g>
<!-- i&#45;&gt;initial -->
<g id="edge1" class="edge">
<title>i&#45;&gt;initial</title>
<path fill="none" stroke="blue" d="M14.14,-43.5C19.8,-43.5 29.05,-43.5 40.51,-43.5"/>
<polygon fill="blue" stroke="blue" points="40.62,-47 50.62,-43.5 40.62,-40 40.62,-47"/>
</g>
<!-- final -->
<g id="node3" class="node">
<title>final</title>
<path fill="white" stroke="black" d="M818,-64C818,-64 636,-64 636,-64 630,-64 624,-58 624,-52 624,-52 624,-35 624,-35 624,-29 630,-23 636,-23 636,-23 818,-23 818,-23 824,-23 830,-29 830,-35 830,-35 830,-52 830,-52 830,-58 824,-64 818,-64"/>
<path fill="none" stroke="black" d="M822,-68C822,-68 632,-68 632,-68 626,-68 620,-62 620,-56 620,-56 620,-31 620,-31 620,-25 626,-19 632,-19 632,-19 822,-19 822,-19 828,-19 834,-25 834,-31 834,-31 834,-56 834,-56 834,-62 828,-68 822,-68"/>
<text text-anchor="middle" x="727" y="-52" font-family="Times,serif" font-size="10.00">Final</text>
<text text-anchor="middle" x="727" y="-41" font-family="Times,serif" font-size="10.00">entry / on_enter_state, on_enter_final</text>
<text text-anchor="middle" x="727" y="-30" font-family="Times,serif" font-size="10.00">exit / on_exit_state, on_exit_final</text>
</g>
<!-- initial&#45;&gt;final -->
<g id="edge2" class="edge">
<title>initial&#45;&gt;final</title>
<path fill="none" stroke="blue" d="M363.07,-43.5C442.21,-43.5 536.87,-43.5 609.67,-43.5"/>
<polygon fill="blue" stroke="blue" points="609.79,-47 619.79,-43.5 609.79,-40 609.79,-47"/>
<text text-anchor="middle" x="491.5" y="-56.3" font-family="Times,serif" font-size="9.00">go</text>
<text text-anchor="middle" x="491.5" y="-46.3" font-family="Times,serif" font-size="9.00">[condition_1, condition_2, !unless_1, !unless_2]</text>
</g>
</g>
</svg>
