<?xml version="1.0" encoding="UTF-8" standalone="no"?>
<!DOCTYPE svg PUBLIC "-//W3C//DTD SVG 1.1//EN"
 "http://www.w3.org/Graphics/SVG/1.1/DTD/svg11.dtd">
<!-- Generated by graphviz version 2.43.0 (0)
 -->
<!-- Title: list Pages: 1 -->
<svg width="758pt" height="133pt"
 viewBox="0.00 0.00 758.00 133.00" xmlns="http://www.w3.org/2000/svg" xmlns:xlink="http://www.w3.org/1999/xlink">
<g id="graph0" class="graph" transform="scale(1 1) rotate(0) translate(4 129)">
<title>list</title>
<polygon fill="white" stroke="transparent" points="-4,4 -4,-129 754,-129 754,4 -4,4"/>
<text text-anchor="middle" x="375" y="-7" font-family="Times,serif" font-size="10.00">OrderControl</text>
<!-- i -->
<g id="node1" class="node">
<title>i</title>
<ellipse fill="black" stroke="black" cx="7" cy="-41" rx="7" ry="7"/>
<text text-anchor="middle" x="7" y="-40.7" font-family="Times,serif" font-size="1.00">i</text>
</g>
<!-- waiting_for_payment -->
<g id="node2" class="node">
<title>waiting_for_payment</title>
<path fill="white" stroke="black" d="M182,-59C182,-59 63,-59 63,-59 57,-59 51,-53 51,-47 51,-47 51,-35 51,-35 51,-29 57,-23 63,-23 63,-23 182,-23 182,-23 188,-23 194,-29 194,-35 194,-35 194,-47 194,-47 194,-53 188,-59 182,-59"/>
<text text-anchor="middle" x="122.5" y="-44" font-family="Times,serif" font-size="10.00">Waiting for payment</text>
<text text-anchor="middle" x="122.5" y="-33" font-family="Times,serif" font-size="10.00">entry / wait_for_payment</text>
</g>
<!-- i&#45;&gt;waiting_for_payment -->
<g id="edge1" class="edge">
<title>i&#45;&gt;waiting_for_payment</title>
<path fill="none" stroke="blue" d="M14.1,-41C19.98,-41 29.6,-41 40.73,-41"/>
<polygon fill="blue" stroke="blue" points="40.84,-44.5 50.84,-41 40.84,-37.5 40.84,-44.5"/>
</g>
<!-- waiting_for_payment&#45;&gt;waiting_for_payment -->
<g id="edge4" class="edge">
<title>waiting_for_payment&#45;&gt;waiting_for_payment</title>
<path fill="none" stroke="blue" d="M114.36,-59.15C113.11,-68.54 115.82,-77 122.5,-77 126.57,-77 129.17,-73.86 130.29,-69.28"/>
<polygon fill="blue" stroke="blue" points="133.8,-69.27 130.64,-59.15 126.8,-69.03 133.8,-69.27"/>
<text text-anchor="middle" x="122.5" y="-79.8" font-family="Times,serif" font-size="9.00">add_to_order</text>
</g>
<!-- waiting_for_payment&#45;&gt;waiting_for_payment -->
<g id="edge6" class="edge">
<title>waiting_for_payment&#45;&gt;waiting_for_payment</title>
<path fill="none" stroke="blue" d="M108.85,-59.26C101.78,-76.4 106.33,-95 122.5,-95 135.64,-95 141.11,-82.72 138.9,-68.92"/>
<polygon fill="blue" stroke="blue" points="142.25,-67.92 136.15,-59.26 135.52,-69.83 142.25,-67.92"/>
<text text-anchor="middle" x="122.5" y="-107.8" font-family="Times,serif" font-size="9.00">receive_payment</text>
<text text-anchor="middle" x="122.5" y="-97.8" font-family="Times,serif" font-size="9.00">[!payments_enough]</text>
</g>
<!-- processing -->
<g id="node4" class="node">
<title>processing</title>
<path fill="white" stroke="black" d="M381,-59C381,-59 333,-59 333,-59 327,-59 321,-53 321,-47 321,-47 321,-35 321,-35 321,-29 327,-23 333,-23 333,-23 381,-23 381,-23 387,-23 393,-29 393,-35 393,-35 393,-47 393,-47 393,-53 387,-59 381,-59"/>
<text text-anchor="middle" x="357" y="-38.5" font-family="Times,serif" font-size="10.00">Processing</text>
</g>
<!-- waiting_for_payment&#45;&gt;processing -->
<g id="edge5" class="edge">
<title>waiting_for_payment&#45;&gt;processing</title>
<path fill="none" stroke="blue" d="M194.2,-41C232.06,-41 277.56,-41 310.66,-41"/>
<polygon fill="blue" stroke="blue" points="310.95,-44.5 320.95,-41 310.95,-37.5 310.95,-44.5"/>
<text text-anchor="middle" x="257.5" y="-53.8" font-family="Times,serif" font-size="9.00">receive_payment</text>
<text text-anchor="middle" x="257.5" y="-43.8" font-family="Times,serif" font-size="9.00">[payments_enough]</text>
</g>
<!-- completed -->
<g id="node3" class="node">
<title>completed</title>
<path fill="white" stroke="black" d="M734,-59C734,-59 686,-59 686,-59 680,-59 674,-53 674,-47 674,-47 674,-35 674,-35 674,-29 680,-23 686,-23 686,-23 734,-23 734,-23 740,-23 746,-29 746,-35 746,-35 746,-47 746,-47 746,-53 740,-59 734,-59"/>
<path fill="none" stroke="black" d="M738,-63C738,-63 682,-63 682,-63 676,-63 670,-57 670,-51 670,-51 670,-31 670,-31 670,-25 676,-19 682,-19 682,-19 738,-19 738,-19 744,-19 750,-25 750,-31 750,-31 750,-51 750,-51 750,-57 744,-63 738,-63"/>
<text text-anchor="middle" x="710" y="-38.5" font-family="Times,serif" font-size="10.00">Completed</text>
</g>
<!-- shipping -->
<g id="node5" class="node">
<title>shipping</title>
<path fill="white" stroke="black" d="M572,-59C572,-59 533,-59 533,-59 527,-59 521,-53 521,-47 521,-47 521,-35 521,-35 521,-29 527,-23 533,-23 533,-23 572,-23 572,-23 578,-23 584,-29 584,-35 584,-35 584,-47 584,-47 584,-53 578,-59 572,-59"/>
<text text-anchor="middle" x="552.5" y="-38.5" font-family="Times,serif" font-size="10.00">Shipping</text>
</g>
<!-- processing&#45;&gt;shipping -->
<g id="edge2" class="edge">
<title>processing&#45;&gt;shipping</title>
<path fill="none" stroke="blue" d="M393.04,-41C426.11,-41 475.67,-41 510.55,-41"/>
<polygon fill="blue" stroke="blue" points="510.86,-44.5 520.86,-41 510.86,-37.5 510.86,-44.5"/>
<text text-anchor="middle" x="457" y="-53.8" font-family="Times,serif" font-size="9.00">process_order</text>
<text text-anchor="middle" x="457" y="-43.8" font-family="Times,serif" font-size="9.00">[payment_received]</text>
</g>
<!-- shipping&#45;&gt;completed -->
<g id="edge3" class="edge">
<title>shipping&#45;&gt;completed</title>
<path fill="none" stroke="blue" d="M584.22,-41C605.67,-41 634.78,-41 659.48,-41"/>
<polygon fill="blue" stroke="blue" points="659.77,-44.5 669.77,-41 659.77,-37.5 659.77,-44.5"/>
<text text-anchor="middle" x="627" y="-43.8" font-family="Times,serif" font-size="9.00">ship_order</text>
</g>
</g>
</svg>
