<?xml version="1.0" encoding="UTF-8" standalone="no"?>
<!DOCTYPE svg PUBLIC "-//W3C//DTD SVG 1.1//EN"
 "http://www.w3.org/Graphics/SVG/1.1/DTD/svg11.dtd">
<!-- Generated by graphviz version 2.40.1 (20161225.0304)
 -->
<!-- Title: list Pages: 1 -->
<svg width="331pt" height="93pt"
 viewBox="0.00 0.00 331.00 93.00" xmlns="http://www.w3.org/2000/svg" xmlns:xlink="http://www.w3.org/1999/xlink">
<g id="graph0" class="graph" transform="scale(1 1) rotate(0) translate(4 89)">
<title>list</title>
<polygon fill="#ffffff" stroke="transparent" points="-4,4 -4,-89 327,-89 327,4 -4,4"/>
<text text-anchor="middle" x="161.5" y="-7" font-family="Times,serif" font-size="10.00" fill="#000000">TrafficLightMachine</text>
<!-- i -->
<g id="node1" class="node">
<title>i</title>
<ellipse fill="#000000" stroke="#000000" cx="7" cy="-37" rx="7" ry="7"/>
<text text-anchor="middle" x="7" y="-36.7" font-family="Times,serif" font-size="1.00" fill="#000000">i</text>
</g>
<!-- green -->
<g id="node2" class="node">
<title>green</title>
<path fill="#ffffff" stroke="#000000" d="M93,-55C93,-55 63,-55 63,-55 57,-55 51,-49 51,-43 51,-43 51,-31 51,-31 51,-25 57,-19 63,-19 63,-19 93,-19 93,-19 99,-19 105,-25 105,-31 105,-31 105,-43 105,-43 105,-49 99,-55 93,-55"/>
<text text-anchor="middle" x="78" y="-34.5" font-family="Times,serif" font-size="10.00" fill="#000000">Green</text>
</g>
<!-- i&#45;&gt;green -->
<g id="edge1" class="edge">
<title>i&#45;&gt;green</title>
<path fill="none" stroke="#0000ff" d="M14.0673,-37C20.4861,-37 30.4839,-37 40.6823,-37"/>
<polygon fill="#0000ff" stroke="#0000ff" points="40.8224,-40.5001 50.8223,-37 40.8223,-33.5001 40.8224,-40.5001"/>
</g>
<!-- yellow -->
<g id="node3" class="node">
<title>yellow</title>
<path fill="#ffffff" stroke="#000000" d="M202,-85C202,-85 172,-85 172,-85 166,-85 160,-79 160,-73 160,-73 160,-61 160,-61 160,-55 166,-49 172,-49 172,-49 202,-49 202,-49 208,-49 214,-55 214,-61 214,-61 214,-73 214,-73 214,-79 208,-85 202,-85"/>
<text text-anchor="middle" x="187" y="-64.5" font-family="Times,serif" font-size="10.00" fill="#000000">Yellow</text>
</g>
<!-- green&#45;&gt;yellow -->
<g id="edge2" class="edge">
<title>green&#45;&gt;yellow</title>
<path fill="none" stroke="#0000ff" d="M105.2241,-44.4929C118.7498,-48.2155 135.2953,-52.7694 149.9565,-56.8045"/>
<polygon fill="#0000ff" stroke="#0000ff" points="149.1749,-60.2195 159.7452,-59.4987 151.0325,-53.4705 149.1749,-60.2195"/>
<text text-anchor="middle" x="132.5" y="-55.8" font-family="Times,serif" font-size="9.00" fill="#000000">cycle</text>
</g>
<!-- red -->
<g id="node4" class="node">
<title>red</title>
<path fill="#ffffff" stroke="#000000" d="M311,-55C311,-55 281,-55 281,-55 275,-55 269,-49 269,-43 269,-43 269,-31 269,-31 269,-25 275,-19 281,-19 281,-19 311,-19 311,-19 317,-19 323,-25 323,-31 323,-31 323,-43 323,-43 323,-49 317,-55 311,-55"/>
<text text-anchor="middle" x="296" y="-34.5" font-family="Times,serif" font-size="10.00" fill="#000000">Red</text>
</g>
<!-- yellow&#45;&gt;red -->
<g id="edge4" class="edge">
<title>yellow&#45;&gt;red</title>
<path fill="none" stroke="#0000ff" d="M214.2241,-59.5071C227.7498,-55.7845 244.2953,-51.2306 258.9565,-47.1955"/>
<polygon fill="#0000ff" stroke="#0000ff" points="260.0325,-50.5295 268.7452,-44.5013 258.1749,-43.7805 260.0325,-50.5295"/>
<text text-anchor="middle" x="241.5" y="-55.8" font-family="Times,serif" font-size="9.00" fill="#000000">cycle</text>
</g>
<!-- red&#45;&gt;green -->
<g id="edge3" class="edge">
<title>red&#45;&gt;green</title>
<path fill="none" stroke="#0000ff" d="M268.7039,-34.0839C252.7719,-32.5285 232.2719,-30.7785 214,-30 190.0218,-28.9784 183.9782,-28.9784 160,-30 145.4396,-30.6204 129.4643,-31.8576 115.5131,-33.1217"/>
<polygon fill="#0000ff" stroke="#0000ff" points="114.9238,-29.6617 105.2961,-34.0839 115.5802,-36.6308 114.9238,-29.6617"/>
<text text-anchor="middle" x="187" y="-32.8" font-family="Times,serif" font-size="9.00" fill="#000000">cycle</text>
</g>
</g>
</svg>
