<?xml version="1.0" encoding="UTF-8" standalone="no"?>
<!DOCTYPE svg PUBLIC "-//W3C//DTD SVG 1.1//EN"
 "http://www.w3.org/Graphics/SVG/1.1/DTD/svg11.dtd">
<!-- Generated by graphviz version 2.40.1 (20161225.0304)
 -->
<!-- Title: list Pages: 1 -->
<svg width="632pt" height="133pt"
 viewBox="0.00 0.00 632.00 133.00" xmlns="http://www.w3.org/2000/svg" xmlns:xlink="http://www.w3.org/1999/xlink">
<g id="graph0" class="graph" transform="scale(1 1) rotate(0) translate(4 129)">
<title>list</title>
<polygon fill="#ffffff" stroke="transparent" points="-4,4 -4,-129 628,-129 628,4 -4,4"/>
<text text-anchor="middle" x="312" y="-7" font-family="Times,serif" font-size="10.00" fill="#000000">OrderControl</text>
<!-- i -->
<g id="node1" class="node">
<title>i</title>
<ellipse fill="#000000" stroke="#000000" cx="7" cy="-41" rx="7" ry="7"/>
<text text-anchor="middle" x="7" y="-40.7" font-family="Times,serif" font-size="1.00" fill="#000000">i</text>
</g>
<!-- waiting_for_payment -->
<g id="node2" class="node">
<title>waiting_for_payment</title>
<path fill="#ffffff" stroke="#000000" d="M140,-59C140,-59 63,-59 63,-59 57,-59 51,-53 51,-47 51,-47 51,-35 51,-35 51,-29 57,-23 63,-23 63,-23 140,-23 140,-23 146,-23 152,-29 152,-35 152,-35 152,-47 152,-47 152,-53 146,-59 140,-59"/>
<text text-anchor="middle" x="101.5" y="-38.5" font-family="Times,serif" font-size="10.00" fill="#000000">Waiting for payment</text>
</g>
<!-- i&#45;&gt;waiting_for_payment -->
<g id="edge1" class="edge">
<title>i&#45;&gt;waiting_for_payment</title>
<path fill="none" stroke="#0000ff" d="M14.1029,-41C20.347,-41 30.0979,-41 40.859,-41"/>
<polygon fill="#0000ff" stroke="#0000ff" points="40.9539,-44.5001 50.9539,-41 40.9539,-37.5001 40.9539,-44.5001"/>
</g>
<!-- waiting_for_payment&#45;&gt;waiting_for_payment -->
<g id="edge4" class="edge">
<title>waiting_for_payment&#45;&gt;waiting_for_payment</title>
<path fill="none" stroke="#0000ff" d="M95.3491,-59.1527C94.4028,-68.5391 96.4531,-77 101.5,-77 104.5754,-77 106.5381,-73.8581 107.3881,-69.2796"/>
<polygon fill="#0000ff" stroke="#0000ff" points="110.8902,-69.2402 107.6509,-59.1527 103.8925,-69.0585 110.8902,-69.2402"/>
<text text-anchor="middle" x="101.5" y="-79.8" font-family="Times,serif" font-size="9.00" fill="#000000">add_to_order</text>
</g>
<!-- waiting_for_payment&#45;&gt;waiting_for_payment -->
<g id="edge6" class="edge">
<title>waiting_for_payment&#45;&gt;waiting_for_payment</title>
<path fill="none" stroke="#0000ff" d="M91.1904,-59.2576C85.8447,-76.4023 89.2813,-95 101.5,-95 111.3323,-95 115.4779,-82.9576 113.9368,-69.3202"/>
<polygon fill="#0000ff" stroke="#0000ff" points="117.3022,-68.3175 111.8096,-59.2576 110.4536,-69.7653 117.3022,-68.3175"/>
<text text-anchor="middle" x="101.5" y="-107.8" font-family="Times,serif" font-size="9.00" fill="#000000">receive_payment</text>
<text text-anchor="middle" x="101.5" y="-97.8" font-family="Times,serif" font-size="9.00" fill="#000000">[payments_enough]</text>
</g>
<!-- processing -->
<g id="node4" class="node">
<title>processing</title>
<path fill="#ffffff" stroke="#000000" d="M307,-59C307,-59 271,-59 271,-59 265,-59 259,-53 259,-47 259,-47 259,-35 259,-35 259,-29 265,-23 271,-23 271,-23 307,-23 307,-23 313,-23 319,-29 319,-35 319,-35 319,-47 319,-47 319,-53 313,-59 307,-59"/>
<text text-anchor="middle" x="289" y="-38.5" font-family="Times,serif" font-size="10.00" fill="#000000">Processing</text>
</g>
<!-- waiting_for_payment&#45;&gt;processing -->
<g id="edge5" class="edge">
<title>waiting_for_payment&#45;&gt;processing</title>
<path fill="none" stroke="#0000ff" d="M152.2402,-41C182.4373,-41 220.2351,-41 248.4369,-41"/>
<polygon fill="#0000ff" stroke="#0000ff" points="248.7398,-44.5001 258.7398,-41 248.7398,-37.5001 248.7398,-44.5001"/>
<text text-anchor="middle" x="205.5" y="-53.8" font-family="Times,serif" font-size="9.00" fill="#000000">receive_payment</text>
<text text-anchor="middle" x="205.5" y="-43.8" font-family="Times,serif" font-size="9.00" fill="#000000">[payments_enough]</text>
</g>
<!-- completed -->
<g id="node3" class="node">
<title>completed</title>
<path fill="#ffffff" stroke="#000000" d="M608,-59C608,-59 570,-59 570,-59 564,-59 558,-53 558,-47 558,-47 558,-35 558,-35 558,-29 564,-23 570,-23 570,-23 608,-23 608,-23 614,-23 620,-29 620,-35 620,-35 620,-47 620,-47 620,-53 614,-59 608,-59"/>
<path fill="none" stroke="#000000" d="M612,-63C612,-63 566,-63 566,-63 560,-63 554,-57 554,-51 554,-51 554,-31 554,-31 554,-25 560,-19 566,-19 566,-19 612,-19 612,-19 618,-19 624,-25 624,-31 624,-31 624,-51 624,-51 624,-57 618,-63 612,-63"/>
<text text-anchor="middle" x="589" y="-38.5" font-family="Times,serif" font-size="10.00" fill="#000000">Completed</text>
</g>
<!-- shipping -->
<g id="node5" class="node">
<title>shipping</title>
<path fill="#ffffff" stroke="#000000" d="M467,-59C467,-59 437,-59 437,-59 431,-59 425,-53 425,-47 425,-47 425,-35 425,-35 425,-29 431,-23 437,-23 437,-23 467,-23 467,-23 473,-23 479,-29 479,-35 479,-35 479,-47 479,-47 479,-53 473,-59 467,-59"/>
<text text-anchor="middle" x="452" y="-38.5" font-family="Times,serif" font-size="10.00" fill="#000000">Shipping</text>
</g>
<!-- processing&#45;&gt;shipping -->
<g id="edge2" class="edge">
<title>processing&#45;&gt;shipping</title>
<path fill="none" stroke="#0000ff" d="M319.277,-41C346.2542,-41 385.8233,-41 414.7361,-41"/>
<polygon fill="#0000ff" stroke="#0000ff" points="414.863,-44.5001 424.863,-41 414.8629,-37.5001 414.863,-44.5001"/>
<text text-anchor="middle" x="372" y="-53.8" font-family="Times,serif" font-size="9.00" fill="#000000">process_order</text>
<text text-anchor="middle" x="372" y="-43.8" font-family="Times,serif" font-size="9.00" fill="#000000">[payment_received]</text>
</g>
<!-- shipping&#45;&gt;completed -->
<g id="edge3" class="edge">
<title>shipping&#45;&gt;completed</title>
<path fill="none" stroke="#0000ff" d="M479.0668,-41C497.4958,-41 522.3337,-41 543.7377,-41"/>
<polygon fill="#0000ff" stroke="#0000ff" points="543.9262,-44.5001 553.9262,-41 543.9261,-37.5001 543.9262,-44.5001"/>
<text text-anchor="middle" x="516.5" y="-43.8" font-family="Times,serif" font-size="9.00" fill="#000000">ship_order</text>
</g>
</g>
</svg>
