<?xml version="1.0" encoding="UTF-8" standalone="no"?>
<!DOCTYPE svg PUBLIC "-//W3C//DTD SVG 1.1//EN"
 "http://www.w3.org/Graphics/SVG/1.1/DTD/svg11.dtd">
<!-- Generated by graphviz version 2.40.1 (20161225.0304)
 -->
<!-- Title: list Pages: 1 -->
<svg width="453pt" height="71pt"
 viewBox="0.00 0.00 453.00 71.00" xmlns="http://www.w3.org/2000/svg" xmlns:xlink="http://www.w3.org/1999/xlink">
<g id="graph0" class="graph" transform="scale(1 1) rotate(0) translate(4 67)">
<title>list</title>
<polygon fill="#ffffff" stroke="transparent" points="-4,4 -4,-67 449,-67 449,4 -4,4"/>
<text text-anchor="middle" x="222.5" y="-7" font-family="Times,serif" font-size="10.00" fill="#000000">AllActionsMachine</text>
<!-- i -->
<g id="node1" class="node">
<title>i</title>
<ellipse fill="#000000" stroke="#000000" cx="7" cy="-41" rx="7" ry="7"/>
<text text-anchor="middle" x="7" y="-40.7" font-family="Times,serif" font-size="1.00" fill="#000000">i</text>
</g>
<!-- initial -->
<g id="node2" class="node">
<title>initial</title>
<path fill="#ffffff" stroke="#000000" d="M162,-61.5C162,-61.5 63,-61.5 63,-61.5 57,-61.5 51,-55.5 51,-49.5 51,-49.5 51,-32.5 51,-32.5 51,-26.5 57,-20.5 63,-20.5 63,-20.5 162,-20.5 162,-20.5 168,-20.5 174,-26.5 174,-32.5 174,-32.5 174,-49.5 174,-49.5 174,-55.5 168,-61.5 162,-61.5"/>
<text text-anchor="middle" x="112.5" y="-49.5" font-family="Times,serif" font-size="10.00" fill="#000000">Initial</text>
<text text-anchor="middle" x="112.5" y="-38.5" font-family="Times,serif" font-size="10.00" fill="#000000">entry / enter_initial_decor</text>
<text text-anchor="middle" x="112.5" y="-27.5" font-family="Times,serif" font-size="10.00" fill="#000000">exit / exit_initial_decor</text>
</g>
<!-- i&#45;&gt;initial -->
<g id="edge1" class="edge">
<title>i&#45;&gt;initial</title>
<path fill="none" stroke="#0000ff" d="M14.2514,-41C20.4176,-41 29.9687,-41 40.7406,-41"/>
<polygon fill="#0000ff" stroke="#0000ff" points="40.9144,-44.5001 50.9144,-41 40.9143,-37.5001 40.9144,-44.5001"/>
</g>
<!-- final -->
<g id="node3" class="node">
<title>final</title>
<path fill="#ffffff" stroke="#000000" d="M429,-59C429,-59 399,-59 399,-59 393,-59 387,-53 387,-47 387,-47 387,-35 387,-35 387,-29 393,-23 399,-23 399,-23 429,-23 429,-23 435,-23 441,-29 441,-35 441,-35 441,-47 441,-47 441,-53 435,-59 429,-59"/>
<path fill="none" stroke="#000000" d="M433,-63C433,-63 395,-63 395,-63 389,-63 383,-57 383,-51 383,-51 383,-31 383,-31 383,-25 389,-19 395,-19 395,-19 433,-19 433,-19 439,-19 445,-25 445,-31 445,-31 445,-51 445,-51 445,-57 439,-63 433,-63"/>
<text text-anchor="middle" x="414" y="-38.5" font-family="Times,serif" font-size="10.00" fill="#000000">Final</text>
</g>
<!-- initial&#45;&gt;final -->
<g id="edge2" class="edge">
<title>initial&#45;&gt;final</title>
<path fill="none" stroke="#0000ff" d="M174.2406,-41C233.5536,-41 321.5079,-41 372.7666,-41"/>
<polygon fill="#0000ff" stroke="#0000ff" points="372.817,-44.5001 382.8169,-41 372.8169,-37.5001 372.817,-44.5001"/>
<text text-anchor="middle" x="278.5" y="-53.8" font-family="Times,serif" font-size="9.00" fill="#000000">go</text>
<text text-anchor="middle" x="278.5" y="-43.8" font-family="Times,serif" font-size="9.00" fill="#000000">[condition_1, condition_2, !unless_1, !unless_2]</text>
</g>
</g>
</svg>
