<?xml version="1.0" encoding="UTF-8" standalone="no"?>
<!DOCTYPE svg PUBLIC "-//W3C//DTD SVG 1.1//EN"
 "http://www.w3.org/Graphics/SVG/1.1/DTD/svg11.dtd">
<!-- Generated by graphviz version 2.40.1 (20161225.0304)
 -->
<!-- Title: list Pages: 1 -->
<svg width="701pt" height="135pt"
 viewBox="0.00 0.00 700.54 135.00" xmlns="http://www.w3.org/2000/svg" xmlns:xlink="http://www.w3.org/1999/xlink">
<g id="graph0" class="graph" transform="scale(1 1) rotate(0) translate(4 131)">
<title>list</title>
<polygon fill="#ffffff" stroke="transparent" points="-4,4 -4,-131 696.5385,-131 696.5385,4 -4,4"/>
<text text-anchor="middle" x="346.2693" y="-7" font-family="Times,serif" font-size="10.00" fill="#000000">OrderControl</text>
<!-- i -->
<g id="node1" class="node">
<title>i</title>
<ellipse fill="#000000" stroke="#000000" cx="7" cy="-42" rx="7" ry="7"/>
<text text-anchor="middle" x="7" y="-41.7" font-family="Times,serif" font-size="1.00" fill="#000000">i</text>
</g>
<!-- waiting_for_payment -->
<g id="node2" class="node">
<title>waiting_for_payment</title>
<path fill="#40e0d0" stroke="#000000" stroke-width="2" d="M209.602,-60C209.602,-60 62.799,-60 62.799,-60 56.799,-60 50.799,-54 50.799,-48 50.799,-48 50.799,-36 50.799,-36 50.799,-30 56.799,-24 62.799,-24 62.799,-24 209.602,-24 209.602,-24 215.602,-24 221.602,-30 221.602,-36 221.602,-36 221.602,-48 221.602,-48 221.602,-54 215.602,-60 209.602,-60"/>
<text text-anchor="middle" x="136.2005" y="-45" font-family="Times,serif" font-size="10.00" fill="#000000">Waiting for payment</text>
<text text-anchor="middle" x="136.2005" y="-33" font-family="Times,serif" font-size="10.00" fill="#000000">entry / on_enter_waiting_for_payment</text>
</g>
<!-- i&#45;&gt;waiting_for_payment -->
<g id="edge1" class="edge">
<title>i&#45;&gt;waiting_for_payment</title>
<path fill="none" stroke="#0000ff" d="M14.3166,-42C20.4271,-42 29.8977,-42 40.9204,-42"/>
<polygon fill="#0000ff" stroke="#0000ff" points="40.9612,-45.5001 50.9611,-42 40.9611,-38.5001 40.9612,-45.5001"/>
</g>
<!-- waiting_for_payment&#45;&gt;waiting_for_payment -->
<g id="edge4" class="edge">
<title>waiting_for_payment&#45;&gt;waiting_for_payment</title>
<path fill="none" stroke="#0000ff" d="M126.9742,-60.1527C125.5547,-69.5391 128.6302,-78 136.2005,-78 140.8137,-78 143.7577,-74.8581 145.0326,-70.2796"/>
<polygon fill="#0000ff" stroke="#0000ff" points="148.5351,-70.2813 145.4268,-60.1527 141.5404,-70.009 148.5351,-70.2813"/>
<text text-anchor="middle" x="136.2005" y="-80.7" font-family="Times,serif" font-size="9.00" fill="#000000">add_to_order</text>
</g>
<!-- waiting_for_payment&#45;&gt;waiting_for_payment -->
<g id="edge6" class="edge">
<title>waiting_for_payment&#45;&gt;waiting_for_payment</title>
<path fill="none" stroke="#0000ff" d="M120.7361,-60.2576C112.7176,-77.4023 117.8724,-96 136.2005,-96 151.0921,-96 157.2872,-83.7226 154.7859,-69.9226"/>
<polygon fill="#0000ff" stroke="#0000ff" points="158.0686,-68.6982 151.6649,-60.2576 151.4073,-70.8493 158.0686,-68.6982"/>
<text text-anchor="middle" x="136.2005" y="-109.5" font-family="Times,serif" font-size="9.00" fill="#000000">receive_payment</text>
<text text-anchor="middle" x="136.2005" y="-98.7" font-family="Times,serif" font-size="9.00" fill="#000000">[!payments_enough]</text>
</g>
<!-- processing -->
<g id="node4" class="node">
<title>processing</title>
<path fill="#ffffff" stroke="#000000" d="M376.3662,-60C376.3662,-60 340.7184,-60 340.7184,-60 334.7184,-60 328.7184,-54 328.7184,-48 328.7184,-48 328.7184,-36 328.7184,-36 328.7184,-30 334.7184,-24 340.7184,-24 340.7184,-24 376.3662,-24 376.3662,-24 382.3662,-24 388.3662,-30 388.3662,-36 388.3662,-36 388.3662,-48 388.3662,-48 388.3662,-54 382.3662,-60 376.3662,-60"/>
<text text-anchor="middle" x="358.5423" y="-39" font-family="Times,serif" font-size="10.00" fill="#000000">Processing</text>
</g>
<!-- waiting_for_payment&#45;&gt;processing -->
<g id="edge5" class="edge">
<title>waiting_for_payment&#45;&gt;processing</title>
<path fill="none" stroke="#0000ff" d="M221.5278,-42C254.9346,-42 291.6375,-42 318.6412,-42"/>
<polygon fill="#0000ff" stroke="#0000ff" points="318.8518,-45.5001 328.8518,-42 318.8517,-38.5001 318.8518,-45.5001"/>
<text text-anchor="middle" x="275.1409" y="-55.5" font-family="Times,serif" font-size="9.00" fill="#000000">receive_payment</text>
<text text-anchor="middle" x="275.1409" y="-44.7" font-family="Times,serif" font-size="9.00" fill="#000000">[payments_enough]</text>
</g>
<!-- completed -->
<g id="node3" class="node">
<title>completed</title>
<path fill="#ffffff" stroke="#000000" d="M676.4874,-60C676.4874,-60 640.7056,-60 640.7056,-60 634.7056,-60 628.7056,-54 628.7056,-48 628.7056,-48 628.7056,-36 628.7056,-36 628.7056,-30 634.7056,-24 640.7056,-24 640.7056,-24 676.4874,-24 676.4874,-24 682.4874,-24 688.4874,-30 688.4874,-36 688.4874,-36 688.4874,-48 688.4874,-48 688.4874,-54 682.4874,-60 676.4874,-60"/>
<path fill="none" stroke="#000000" d="M680.4806,-64C680.4806,-64 636.7124,-64 636.7124,-64 630.7124,-64 624.7124,-58 624.7124,-52 624.7124,-52 624.7124,-32 624.7124,-32 624.7124,-26 630.7124,-20 636.7124,-20 636.7124,-20 680.4806,-20 680.4806,-20 686.4806,-20 692.4806,-26 692.4806,-32 692.4806,-32 692.4806,-52 692.4806,-52 692.4806,-58 686.4806,-64 680.4806,-64"/>
<text text-anchor="middle" x="658.5965" y="-39" font-family="Times,serif" font-size="10.00" fill="#000000">Completed</text>
</g>
<!-- shipping -->
<g id="node5" class="node">
<title>shipping</title>
<path fill="#ffffff" stroke="#000000" d="M538.166,-60C538.166,-60 508.166,-60 508.166,-60 502.166,-60 496.166,-54 496.166,-48 496.166,-48 496.166,-36 496.166,-36 496.166,-30 502.166,-24 508.166,-24 508.166,-24 538.166,-24 538.166,-24 544.166,-24 550.166,-30 550.166,-36 550.166,-36 550.166,-48 550.166,-48 550.166,-54 544.166,-60 538.166,-60"/>
<text text-anchor="middle" x="523.166" y="-39" font-family="Times,serif" font-size="10.00" fill="#000000">Shipping</text>
</g>
<!-- processing&#45;&gt;shipping -->
<g id="edge2" class="edge">
<title>processing&#45;&gt;shipping</title>
<path fill="none" stroke="#0000ff" d="M388.3544,-42C415.6692,-42 456.222,-42 485.7132,-42"/>
<polygon fill="#0000ff" stroke="#0000ff" points="486.0329,-45.5001 496.0329,-42 486.0329,-38.5001 486.0329,-45.5001"/>
<text text-anchor="middle" x="442.1849" y="-55.5" font-family="Times,serif" font-size="9.00" fill="#000000">process_order</text>
<text text-anchor="middle" x="442.1849" y="-44.7" font-family="Times,serif" font-size="9.00" fill="#000000">[payment_received]</text>
</g>
<!-- shipping&#45;&gt;completed -->
<g id="edge3" class="edge">
<title>shipping&#45;&gt;completed</title>
<path fill="none" stroke="#0000ff" d="M550.2469,-42C568.5558,-42 593.1538,-42 614.2848,-42"/>
<polygon fill="#0000ff" stroke="#0000ff" points="614.3369,-45.5001 624.3369,-42 614.3369,-38.5001 614.3369,-45.5001"/>
<text text-anchor="middle" x="587.4103" y="-44.7" font-family="Times,serif" font-size="9.00" fill="#000000">ship_order</text>
</g>
</g>
</svg>
